<svg xmlns="http://www.w3.org/2000/svg" xmlns:xlink="http://www.w3.org/1999/xlink" width="89.5" height="83.066" viewBox="0 0 89.5 83.066">
  <defs>
    <linearGradient id="linear-gradient" x1="0.5" x2="0.5" y2="1" gradientUnits="objectBoundingBox">
      <stop offset="0" stop-color="#fff"/>
      <stop offset="1" stop-color="#fff" stop-opacity="0"/>
    </linearGradient>
  </defs>
  <g id="Grupo_133" data-name="Grupo 133" transform="translate(-137.038 -3138)">
    <ellipse id="Elipse_76" data-name="Elipse 76" cx="42.269" cy="41.533" rx="42.269" ry="41.533" transform="translate(142 3138)" fill="#3eb28b" opacity="0.1"/>
    <path id="Caminho_26" data-name="Caminho 26" d="M246.154,3303.847H231.538" transform="translate(-92 -142.296)" fill="none" stroke="#fe7c34" stroke-linecap="round" stroke-width="5"/>
    <path id="Caminho_27" data-name="Caminho 27" d="M238.846,3303.847h-7.308" transform="translate(-84.692 -132.802)" fill="none" stroke="#fe7c34" stroke-linecap="round" stroke-width="5"/>
    <g id="Grupo_80" data-name="Grupo 80" transform="translate(161.734 3157.126)">
      <ellipse id="Elipse_57" data-name="Elipse 57" cx="18" cy="10.5" rx="18" ry="10.5" transform="translate(44.483 29.67) rotate(-177)" opacity="0.2" fill="url(#linear-gradient)"/>
      <ellipse id="Elipse_58" data-name="Elipse 58" cx="18" cy="10.5" rx="18" ry="10.5" transform="matrix(-0.695, 0.719, -0.719, -0.695, 40.114, 14.588)" opacity="0.1" fill="url(#linear-gradient)"/>
    </g>
    <g id="cv" transform="translate(162.689 3156.066)">
      <g id="Grupo_643" data-name="Grupo 643" transform="translate(2.128 0)">
        <path id="Caminho_5975" data-name="Caminho 5975" d="M71.424,177.5H55.405a.65.65,0,0,0,0,1.3H71.424a.65.65,0,0,0,0-1.3Z" transform="translate(-50.192 -162.109)" fill="#3eb28b" stroke="#3eb28b" stroke-width="0.5"/>
        <path id="Caminho_5976" data-name="Caminho 5976" d="M71.424,232.833H55.405a.65.65,0,0,0,0,1.3H71.424a.65.65,0,0,0,0-1.3Z" transform="translate(-50.192 -212.644)" fill="#3eb28b" stroke="#3eb28b" stroke-width="0.5"/>
        <path id="Caminho_5977" data-name="Caminho 5977" d="M72.075,288.817a.65.65,0,0,0-.65-.65H55.405a.65.65,0,1,0,0,1.3H71.424A.65.65,0,0,0,72.075,288.817Z" transform="translate(-50.192 -263.18)" fill="#3eb28b" stroke="#3eb28b" stroke-width="0.5"/>
        <path id="Caminho_5978" data-name="Caminho 5978" d="M55.405,343.5a.65.65,0,1,0,0,1.3h7.47a.65.65,0,1,0,0-1.3Z" transform="translate(-50.192 -313.715)" fill="#3eb28b" stroke="#3eb28b" stroke-width="0.5"/>
        <path id="Caminho_5979" data-name="Caminho 5979" d="M56.008,56.826h6.805a1.254,1.254,0,0,0,1.252-1.252V53.266a1.254,1.254,0,0,0-1.252-1.252H56.008a1.254,1.254,0,0,0-1.252,1.252v2.307A1.254,1.254,0,0,0,56.008,56.826Zm.048-3.511h6.709v2.21H56.057Z" transform="translate(-50.193 -47.504)" fill="#3eb28b" stroke="#3eb28b" stroke-width="0.5"/>
        <path id="Caminho_5980" data-name="Caminho 5980" d="M19.676,43.094h-14a2.248,2.248,0,0,1-2.246-2.246V3.546A2.248,2.248,0,0,1,5.674,1.3H26.867a1.557,1.557,0,0,1,.258.023V5.776a3.55,3.55,0,0,0,3.546,3.546h4.452a1.558,1.558,0,0,1,.023.258v.976a.65.65,0,1,0,1.3,0V9.58a2.826,2.826,0,0,0-.833-2.011L28.878.833A2.826,2.826,0,0,0,26.867,0H5.674A3.55,3.55,0,0,0,2.128,3.546v37.3A3.55,3.55,0,0,0,5.674,44.4h14a.65.65,0,1,0,0-1.3ZM28.426,2.22l5.8,5.8H30.672a2.248,2.248,0,0,1-2.246-2.246Z" transform="translate(-2.128 0)" fill="#3eb28b" stroke="#3eb28b" stroke-width="0.5"/>
        <path id="Caminho_5981" data-name="Caminho 5981" d="M244.991,173a4.994,4.994,0,0,0-2.979-4.545,24.491,24.491,0,0,0-5.63-1.243h0a.242.242,0,0,1-.212-.238l-.009-2.016q.224-.166.44-.353a5.749,5.749,0,0,0,1.909-3.665,1.654,1.654,0,0,0,1.417-1.641l0-1.109a1.643,1.643,0,0,0-.544-1.217l-.012-2.763a4.87,4.87,0,0,0-4.864-4.844h-.021l-4.346.018a2.472,2.472,0,0,0-2.317,1.649c0,.011-.012.02-.019.02a2.48,2.48,0,0,0-2.471,2.492l.015,3.487a1.643,1.643,0,0,0-.534,1.222l0,1.109a1.652,1.652,0,0,0,1.431,1.63,5.748,5.748,0,0,0,1.94,3.649q.217.186.443.349l.009,2.015a.242.242,0,0,1-.21.24h0a24.5,24.5,0,0,0-5.621,1.29,4.994,4.994,0,0,0-2.941,4.57l.021,4.95a2.767,2.767,0,0,0,2.762,2.753h19.61a2.7,2.7,0,0,0,1.964-.872,2.913,2.913,0,0,0,.79-1.988Zm-8.542-4.468c.151.02.321.043.5.069a.269.269,0,0,1,.136.47l-2.23,1.93a.269.269,0,0,1-.333.016l-.01-.007h0l-.935-.667Zm-4.036,1.01-2.731-1.692a1.532,1.532,0,0,0,.254-.85l-.005-1.269a6.222,6.222,0,0,0,4.931-.021l.005,1.269a1.532,1.532,0,0,0,.262.848Zm.936,2.231-.444,1.056-.96,0-.449-1.052.925-.672ZM227.8,152.354a1.327,1.327,0,0,0,1.241-.889,1.169,1.169,0,0,1,1.1-.779l4.346-.018h.015a3.568,3.568,0,0,1,3.563,3.549l.011,2.522a2.773,2.773,0,0,0-.633.23,1.293,1.293,0,0,1-.522.141l-.008-1.914a2.227,2.227,0,0,0-2.227-2.219h-.03a3.2,3.2,0,0,0-.98.158,4.458,4.458,0,0,1-2.664.011,3.3,3.3,0,0,0-.981-.15h-.019a2.231,2.231,0,0,0-2.219,2.238l.007,1.722a5.152,5.152,0,0,0-1.158-.22l-.013-3.2A1.18,1.18,0,0,1,227.8,152.354Zm-.308,7.985a.65.65,0,0,0-.65-.634h0l-.378,0h0a.35.35,0,0,1-.35-.349l0-1.109a.342.342,0,0,1,.091-.236,3.067,3.067,0,0,1,1.492.321.83.83,0,0,0,1.412-.6l-.011-2.51a.929.929,0,0,1,.924-.932,1.9,1.9,0,0,1,.6.089,5.748,5.748,0,0,0,3.46-.015,1.989,1.989,0,0,1,.6-.094h0a.927.927,0,0,1,.928.924l.009,2.161a1.044,1.044,0,0,0,.924,1.032,2.6,2.6,0,0,0,1.492-.27,1.59,1.59,0,0,1,.5-.151.341.341,0,0,1,.083.223l0,1.109a.351.351,0,0,1-.349.352l-.378,0a.65.65,0,0,0-.647.639,4.494,4.494,0,0,1-1.5,3.327,5.763,5.763,0,0,1-.579.442,4.977,4.977,0,0,1-5.554.025,5.749,5.749,0,0,1-.585-.439A4.5,4.5,0,0,1,227.5,160.339Zm2.48,19.171h-4.892l-.011-2.572a.65.65,0,0,0-.65-.648h0a.65.65,0,0,0-.648.653l.011,2.567h-1.133a1.466,1.466,0,0,1-1.464-1.458l-.021-4.95a3.692,3.692,0,0,1,2.174-3.379,14.972,14.972,0,0,1,3-.822,1.551,1.551,0,0,0,.553,1.2l2.246,1.911a1.542,1.542,0,0,0,1.2.364l.511,1.2Zm.334-8.474a.269.269,0,0,1-.333-.013l-2.246-1.911a.269.269,0,0,1,.132-.471c.184-.028.354-.052.5-.073l2.882,1.786Zm.98,8.474.787-5.374.7,0,.839,5.377Zm11.983-.462a1.409,1.409,0,0,1-1.021.462h-1.127l-.011-2.64a.65.65,0,0,0-.65-.648h0a.65.65,0,0,0-.648.653l.011,2.634h-4.89l-.928-5.948.506-1.2a1.543,1.543,0,0,0,1.2-.374l2.23-1.93a1.551,1.551,0,0,0,.543-1.206,14.973,14.973,0,0,1,3,.8,3.692,3.692,0,0,1,2.2,3.36l.021,4.95A1.6,1.6,0,0,1,243.275,179.047Z" transform="translate(-200.986 -136.415)" fill="#3eb28b" stroke="#3eb28b" stroke-width="0.5"/>
      </g>
    </g>
  </g>
</svg>
