<svg xmlns="http://www.w3.org/2000/svg" width="56" height="51.52" viewBox="0 0 56 51.52">
  <g id="Design_Gráfico" data-name="Design Gráfico" transform="translate(-3276 -588)">
    <path id="Caminho_6063" data-name="Caminho 6063" d="M3326.4,588h-44.8a5.607,5.607,0,0,0-5.6,5.6v31.36a5.607,5.607,0,0,0,5.6,5.6h16.8v6.72h-5.6a1.12,1.12,0,0,0,0,2.24h22.4a1.12,1.12,0,0,0,0-2.24h-5.6v-6.72h16.8a5.606,5.606,0,0,0,5.6-5.6V593.6A5.607,5.607,0,0,0,3326.4,588Zm-48.16,33.6V596.96h40.32V621.6Zm51.52-24.64v4.48h-8.96v-4.48Zm-8.96,13.44h8.96v4.48h-8.96Zm0-2.24v-4.48h8.96v4.48Zm0,8.96h8.96v4.48h-8.96Zm-39.2-26.88h44.8a3.364,3.364,0,0,1,3.36,3.36v1.12h-51.52V593.6A3.364,3.364,0,0,1,3281.6,590.24Zm25.76,47.04h-6.72v-6.72s5.04-1.68,6.72,0S3307.36,637.28,3307.36,637.28Zm19.04-8.96h-44.8a3.364,3.364,0,0,1-3.36-3.36v-1.12h51.52v1.12A3.363,3.363,0,0,1,3326.4,628.32Z" fill="#fe7c34"/>
    <path id="Caminho_6064" data-name="Caminho 6064" d="M3377.36,678.72a3.36,3.36,0,1,0-3.36-3.36A3.364,3.364,0,0,0,3377.36,678.72Zm0-4.48a1.12,1.12,0,1,1-1.12,1.12A1.121,1.121,0,0,1,3377.36,674.24Z" transform="translate(-82.32 -70.56)" fill="#3eb28b"/>
    <path id="Caminho_6065" data-name="Caminho 6065" d="M3330.552,686.329a1.12,1.12,0,0,0-1.584,0l-10.408,10.408-5.928-5.928a1.12,1.12,0,0,0-1.584,0l-6.72,6.72a1.12,1.12,0,0,0,1.583,1.584l5.928-5.928,5.928,5.928a1.12,1.12,0,0,0,1.583,0L3329.76,688.7l8.168,8.168a1.12,1.12,0,0,0,1.584-1.584Z" transform="translate(-23.52 -82.32)" fill="#3eb28b"/>
  </g>
</svg>
