<svg xmlns="http://www.w3.org/2000/svg" xmlns:xlink="http://www.w3.org/1999/xlink" width="89.5" height="83.066" viewBox="0 0 89.5 83.066">
  <defs>
    <linearGradient id="linear-gradient" x1="0.5" x2="0.5" y2="1" gradientUnits="objectBoundingBox">
      <stop offset="0" stop-color="#fff"/>
      <stop offset="1" stop-color="#fff" stop-opacity="0"/>
    </linearGradient>
  </defs>
  <g id="Grupo_646" data-name="Grupo 646" transform="translate(-137.038 -3138)">
    <ellipse id="Elipse_76" data-name="Elipse 76" cx="42.269" cy="41.533" rx="42.269" ry="41.533" transform="translate(142 3138)" fill="#3eb28b" opacity="0.1"/>
    <path id="Caminho_26" data-name="Caminho 26" d="M246.154,3303.847H231.538" transform="translate(-92 -142.296)" fill="none" stroke="#fe7c34" stroke-linecap="round" stroke-width="5"/>
    <path id="Caminho_27" data-name="Caminho 27" d="M238.846,3303.847h-7.308" transform="translate(-84.692 -132.802)" fill="none" stroke="#fe7c34" stroke-linecap="round" stroke-width="5"/>
    <g id="Grupo_80" data-name="Grupo 80" transform="translate(161.734 3157.126)">
      <ellipse id="Elipse_57" data-name="Elipse 57" cx="18" cy="10.5" rx="18" ry="10.5" transform="translate(44.483 29.67) rotate(-177)" opacity="0.2" fill="url(#linear-gradient)"/>
      <ellipse id="Elipse_58" data-name="Elipse 58" cx="18" cy="10.5" rx="18" ry="10.5" transform="matrix(-0.695, 0.719, -0.719, -0.695, 40.114, 14.588)" opacity="0.1" fill="url(#linear-gradient)"/>
    </g>
    <g id="job-interview" transform="translate(164.539 3160.066)">
      <path id="Caminho_6010" data-name="Caminho 6010" d="M39.3,26.118h-.628V22.475a4.409,4.409,0,0,0-2.894-4.131l-4.014-1.458V16.1a5.676,5.676,0,0,0,2.543-2.543h.6A1.878,1.878,0,0,0,36.192,10.3l.273-1.64A6.581,6.581,0,0,0,29.972,1h-1.43a6.581,6.581,0,0,0-6.493,7.665l.273,1.64a1.878,1.878,0,0,0,1.284,3.255h.6A5.676,5.676,0,0,0,26.745,16.1v.785l-4.014,1.459a4.409,4.409,0,0,0-2.894,4.129v3.642H16.7v1.256H38.676v2.512H20.44a3.763,3.763,0,0,0-1.714-1.373l-3.911-1.564v-.3a2.524,2.524,0,0,0,1.678-1.513h0l.105-.274h.728A1.881,1.881,0,0,0,18,21.223l.331-.86a5.93,5.93,0,0,0-5.535-8.06H10.557a5.93,5.93,0,0,0-5.538,8.06l.331.86a1.881,1.881,0,0,0,.674,3.638h.728l.105.274a2.524,2.524,0,0,0,1.678,1.513v.3L4.624,28.512A3.768,3.768,0,0,0,2.91,29.885H2.256V27.373h4.4V26.118H1.628A.628.628,0,0,0,1,26.745v3.768a.628.628,0,0,0,.628.628h.738a3.8,3.8,0,0,0-.111.87V39.3a.628.628,0,0,0,.628.628H20.466a.628.628,0,0,0,.628-.628V32.011a3.8,3.8,0,0,0-.111-.87H37.42v8.791h1.256V31.141H39.3a.628.628,0,0,0,.628-.628V26.745A.628.628,0,0,0,39.3,26.118Zm-29.513.628h3.768v.368l-.184.184a2.463,2.463,0,0,1-3.4,0l-.184-.184Zm8.163-3.768a.628.628,0,0,1-.628.628h-.245l.466-1.211A.628.628,0,0,1,17.954,22.978Zm-11.931.628A.628.628,0,0,1,5.8,22.394l.466,1.211Zm2.006,1.079L6.651,21.1v-.009h0l-.455-1.182a4.675,4.675,0,0,1,4.363-6.353h2.237a4.675,4.675,0,0,1,4.363,6.353L16.7,21.094h0V21.1l-1.377,3.582a1.266,1.266,0,0,1-1.176.805H9.2A1.264,1.264,0,0,1,8.029,24.685ZM19.838,38.676H17.326v-4.4H16.071v4.4H7.279v-4.4H6.024v4.4H3.512V32.011a2.5,2.5,0,0,1,1.579-2.332l3.921-1.57.075.075a3.66,3.66,0,0,0,5.175,0l.075-.075,3.922,1.57a2.5,2.5,0,0,1,1.579,2.332Zm17.582-16.2v3.642H35.537v-3.14H34.281v3.14H31.057L30.541,22.5l.684-1.028.167.126a.628.628,0,0,0,.992-.377l.517-2.583,2.452.892a3.15,3.15,0,0,1,2.067,2.947ZM27.212,18.053,28.3,19.142l-1.136.851L26.808,18.2Zm4.09,0,.405.148-.359,1.793-1.136-.851ZM29.257,20l.962.722-.67,1h-.584l-.671-1Zm-.084,2.983h.167l.448,3.14H28.725ZM34.909,12.3h-.146a5.633,5.633,0,0,0,.146-1.256.628.628,0,0,1,0,1.256Zm-11.3,0a.628.628,0,0,1,0-1.256,5.633,5.633,0,0,0,.146,1.256Zm0-3.768V9.791c-.033,0-.063.008-.095.009l-.224-1.342a5.327,5.327,0,0,1,5.255-6.2h1.43a5.327,5.327,0,0,1,5.255,6.2L35,9.8c-.032,0-.063-.009-.095-.009V8.535a.628.628,0,0,0-.628-.628h-.959a3.893,3.893,0,0,1-3.5-2.165.654.654,0,0,0-1.124,0,3.893,3.893,0,0,1-3.505,2.165h-.959A.628.628,0,0,0,23.606,8.535Zm1.256,2.512V9.163h.332a5.14,5.14,0,0,0,4.064-1.97,5.14,5.14,0,0,0,4.064,1.97h.332v1.884a4.4,4.4,0,1,1-8.791,0Zm4.4,5.651a5.633,5.633,0,0,0,1.256-.146v.514l-1.256,1.256L28,17.066v-.514a5.633,5.633,0,0,0,1.256.146Zm-8.163,5.777a3.15,3.15,0,0,1,2.067-2.951l2.452-.892.517,2.587a.628.628,0,0,0,.992.377l.166-.126.685,1.027-.517,3.619H24.234v-3.14H22.978v3.14H21.094Z" fill="#3eb28b" stroke="#3eb28b" stroke-width="0.5"/>
      <path id="Caminho_6011" data-name="Caminho 6011" d="M1.628,11.535H17.954a.628.628,0,0,0,.628-.628v-1.5l2.164-1.083a.628.628,0,0,0,0-1.124L18.582,6.124v-1.5A.628.628,0,0,0,17.954,4H1.628A.628.628,0,0,0,1,4.628v6.279a.628.628,0,0,0,.628.628Zm.628-6.279H17.326V6.512a.628.628,0,0,0,.347.562l1.388.694-1.388.694a.628.628,0,0,0-.347.561v1.256H2.256Z" transform="translate(0 -1.116)" fill="#3eb28b" stroke="#3eb28b" stroke-width="0.5"/>
      <rect id="Ret창ngulo_61" data-name="Ret창ngulo 61" width="10" height="1" transform="translate(4 6)" fill="#3eb28b" stroke="#3eb28b" stroke-width="0.5"/>
      <rect id="Ret창ngulo_62" data-name="Ret창ngulo 62" width="1" height="1" transform="translate(15 6)" fill="#3eb28b" stroke="#3eb28b" stroke-width="0.5"/>
    </g>
  </g>
</svg>
