<svg xmlns="http://www.w3.org/2000/svg" width="72.734" height="62.173" viewBox="0 0 72.734 62.173">
  <g id="Administrativo" transform="translate(-4581.794 -1565.855)">
    <g id="Grupo_650" data-name="Grupo 650" transform="translate(4585.312 1609.732)">
      <g id="Grupo_649" data-name="Grupo 649" transform="translate(0 0)">
        <g id="Grupo_648" data-name="Grupo 648">
          <g id="Grupo_647" data-name="Grupo 647">
            <path id="Caminho_6036" data-name="Caminho 6036" d="M4604.776,1739.184h-9.959a1.132,1.132,0,0,1-1.132-1.132v-15.6a1.133,1.133,0,0,1,1.132-1.132h9.959a1.133,1.133,0,0,1,1.132,1.132v15.6A1.132,1.132,0,0,1,4604.776,1739.184Zm-8.828-2.264h7.7v-13.333h-7.7Z" transform="translate(-4593.685 -1721.323)" fill="#fe7c34" stroke="#fe7c34" stroke-width="0.5"/>
          </g>
        </g>
      </g>
    </g>
    <g id="Grupo_654" data-name="Grupo 654" transform="translate(4603.137 1600.819)">
      <g id="Grupo_653" data-name="Grupo 653" transform="translate(0)">
        <g id="Grupo_652" data-name="Grupo 652">
          <g id="Grupo_651" data-name="Grupo 651">
            <path id="Caminho_6037" data-name="Caminho 6037" d="M4668.268,1716.351h-9.96a1.132,1.132,0,0,1-1.132-1.132v-24.51a1.132,1.132,0,0,1,1.132-1.132h9.96a1.132,1.132,0,0,1,1.132,1.132v24.51A1.132,1.132,0,0,1,4668.268,1716.351Zm-8.828-2.264h7.7v-22.246h-7.7Z" transform="translate(-4657.176 -1689.577)" fill="#fe7c34" stroke="#fe7c34" stroke-width="0.5"/>
          </g>
        </g>
      </g>
    </g>
    <g id="Grupo_658" data-name="Grupo 658" transform="translate(4620.962 1609.732)">
      <g id="Grupo_657" data-name="Grupo 657" transform="translate(0 0)">
        <g id="Grupo_656" data-name="Grupo 656">
          <g id="Grupo_655" data-name="Grupo 655">
            <path id="Caminho_6038" data-name="Caminho 6038" d="M4731.759,1739.184H4721.8a1.132,1.132,0,0,1-1.132-1.132v-15.6a1.133,1.133,0,0,1,1.132-1.132h9.959a1.132,1.132,0,0,1,1.131,1.132v15.6A1.132,1.132,0,0,1,4731.759,1739.184Zm-8.828-2.264h7.7v-13.333h-7.7Z" transform="translate(-4720.667 -1721.323)" fill="#fe7c34" stroke="#fe7c34" stroke-width="0.5"/>
          </g>
        </g>
      </g>
    </g>
    <g id="Grupo_662" data-name="Grupo 662" transform="translate(4638.788 1591.907)">
      <g id="Grupo_661" data-name="Grupo 661" transform="translate(0)">
        <g id="Grupo_660" data-name="Grupo 660">
          <g id="Grupo_659" data-name="Grupo 659">
            <path id="Caminho_6039" data-name="Caminho 6039" d="M4795.253,1693.517h-9.96a1.132,1.132,0,0,1-1.132-1.132v-33.422a1.132,1.132,0,0,1,1.132-1.132h9.96a1.132,1.132,0,0,1,1.132,1.132v33.422A1.132,1.132,0,0,1,4795.253,1693.517Zm-8.828-2.264h7.7v-31.159h-7.7Z" transform="translate(-4784.161 -1657.831)" fill="#fe7c34" stroke="#fe7c34" stroke-width="0.5"/>
          </g>
        </g>
      </g>
    </g>
    <g id="Grupo_666" data-name="Grupo 666" transform="translate(4628.003 1566.175)">
      <g id="Grupo_665" data-name="Grupo 665">
        <g id="Grupo_664" data-name="Grupo 664">
          <g id="Grupo_663" data-name="Grupo 663">
            <path id="Caminho_6040" data-name="Caminho 6040" d="M4746.88,1598.335a1.132,1.132,0,0,1-.968-1.717l18.061-29.9a1.132,1.132,0,0,1,1.938,1.171l-18.061,29.9A1.13,1.13,0,0,1,4746.88,1598.335Z" transform="translate(-4745.75 -1566.176)" fill="#3eb28b" stroke="#3eb28b" stroke-width="0.5"/>
          </g>
        </g>
      </g>
    </g>
    <g id="Grupo_670" data-name="Grupo 670" transform="translate(4611.192 1589.527)">
      <g id="Grupo_669" data-name="Grupo 669" transform="translate(0 0)">
        <g id="Grupo_668" data-name="Grupo 668">
          <g id="Grupo_667" data-name="Grupo 667">
            <path id="Caminho_6041" data-name="Caminho 6041" d="M4698.905,1659.653a1.125,1.125,0,0,1-.632-.194l-11.9-8.035a1.132,1.132,0,1,1,1.266-1.876l11.9,8.035a1.132,1.132,0,0,1-.634,2.07Z" transform="translate(-4685.87 -1649.354)" fill="#3eb28b" stroke="#3eb28b" stroke-width="0.5"/>
          </g>
        </g>
      </g>
    </g>
    <g id="Grupo_674" data-name="Grupo 674" transform="translate(4593.546 1589.269)">
      <g id="Grupo_673" data-name="Grupo 673">
        <g id="Grupo_672" data-name="Grupo 672">
          <g id="Grupo_671" data-name="Grupo 671">
            <path id="Caminho_6042" data-name="Caminho 6042" d="M4624.145,1660.216a1.132,1.132,0,0,1-.716-2.009l11.663-9.517a1.132,1.132,0,1,1,1.431,1.754l-11.662,9.517A1.129,1.129,0,0,1,4624.145,1660.216Z" transform="translate(-4623.012 -1648.435)" fill="#3eb28b" stroke="#3eb28b" stroke-width="0.5"/>
          </g>
        </g>
      </g>
    </g>
    <g id="Grupo_678" data-name="Grupo 678" transform="translate(4638.913 1566.175)">
      <g id="Grupo_677" data-name="Grupo 677">
        <g id="Grupo_676" data-name="Grupo 676">
          <g id="Grupo_675" data-name="Grupo 675">
            <path id="Caminho_6043" data-name="Caminho 6043" d="M4794.845,1575.611a1.132,1.132,0,0,1-1.092-.838l-1.639-6.08-6.079,1.637a1.132,1.132,0,0,1-.589-2.186l7.172-1.931a1.133,1.133,0,0,1,1.387.8l1.933,7.172a1.132,1.132,0,0,1-1.094,1.427Z" transform="translate(-4784.609 -1566.175)" fill="#3eb28b" stroke="#3eb28b" stroke-width="0.5"/>
          </g>
        </g>
      </g>
    </g>
    <g id="Grupo_682" data-name="Grupo 682" transform="translate(4582.044 1625.515)">
      <g id="Grupo_681" data-name="Grupo 681">
        <g id="Grupo_680" data-name="Grupo 680">
          <g id="Grupo_679" data-name="Grupo 679">
            <path id="Caminho_6044" data-name="Caminho 6044" d="M4653.146,1779.8h-69.971a1.132,1.132,0,1,1,0-2.264h69.971a1.132,1.132,0,1,1,0,2.264Z" transform="translate(-4582.044 -1777.541)" fill="#fe7c34" stroke="#fe7c34" stroke-width="0.5"/>
          </g>
        </g>
      </g>
    </g>
    <g id="Grupo_686" data-name="Grupo 686" transform="translate(4586.831 1597.359)">
      <g id="Grupo_685" data-name="Grupo 685" transform="translate(0)">
        <g id="Grupo_684" data-name="Grupo 684">
          <g id="Grupo_683" data-name="Grupo 683">
            <path id="Caminho_6045" data-name="Caminho 6045" d="M4603.688,1686.436a4.592,4.592,0,1,1,4.593-4.592A4.6,4.6,0,0,1,4603.688,1686.436Zm0-6.921a2.329,2.329,0,1,0,2.329,2.329A2.331,2.331,0,0,0,4603.688,1679.515Z" transform="translate(-4599.095 -1677.251)" fill="#3eb28b" stroke="#3eb28b" stroke-width="0.5"/>
          </g>
        </g>
      </g>
    </g>
    <g id="Grupo_690" data-name="Grupo 690" transform="translate(4604.656 1583.939)">
      <g id="Grupo_689" data-name="Grupo 689" transform="translate(0 0)">
        <g id="Grupo_688" data-name="Grupo 688">
          <g id="Grupo_687" data-name="Grupo 687">
            <path id="Caminho_6046" data-name="Caminho 6046" d="M4667.181,1638.637a4.593,4.593,0,1,1,4.592-4.593A4.6,4.6,0,0,1,4667.181,1638.637Zm0-6.921a2.329,2.329,0,1,0,2.329,2.328A2.331,2.331,0,0,0,4667.181,1631.716Z" transform="translate(-4662.589 -1629.452)" fill="#3eb28b" stroke="#3eb28b" stroke-width="0.5"/>
          </g>
        </g>
      </g>
    </g>
    <g id="Grupo_694" data-name="Grupo 694" transform="translate(4622.481 1596.07)">
      <g id="Grupo_693" data-name="Grupo 693" transform="translate(0 0)">
        <g id="Grupo_692" data-name="Grupo 692">
          <g id="Grupo_691" data-name="Grupo 691">
            <path id="Caminho_6047" data-name="Caminho 6047" d="M4730.672,1681.847a4.592,4.592,0,1,1,4.593-4.592A4.6,4.6,0,0,1,4730.672,1681.847Zm0-6.921a2.329,2.329,0,1,0,2.329,2.329A2.331,2.331,0,0,0,4730.672,1674.926Z" transform="translate(-4726.08 -1672.662)" fill="#3eb28b" stroke="#3eb28b" stroke-width="0.5"/>
          </g>
        </g>
      </g>
    </g>
  </g>
</svg>
