<svg xmlns="http://www.w3.org/2000/svg" width="27.804" height="27.801" viewBox="0 0 27.804 27.801">
  <path id="LinkIn" d="M21.841,27.8V17.765c0-2.522-.863-4.241-3.02-4.241a3.277,3.277,0,0,0-3.053,2.28,4.376,4.376,0,0,0-.2,1.519V27.8H9.611s.077-17,0-18.758h5.959V11.7a5.879,5.879,0,0,1,5.371-3.1c3.92,0,6.863,2.683,6.863,8.444V27.8ZM.354,27.8V9.043H6.311V27.8ZM3.291,6.485A3.15,3.15,0,0,1,0,3.244,3.174,3.174,0,0,1,3.371,0,3.161,3.161,0,0,1,6.7,3.244a3.172,3.172,0,0,1-3.371,3.24Z" fill="#fff"/>
</svg>
