<svg xmlns="http://www.w3.org/2000/svg" width="29.997" height="29.997" viewBox="0 0 29.997 29.997">
  <g id="Icon_feather-instagram" data-name="Icon feather-instagram" transform="translate(-1.5 -1.5)">
    <path id="Caminho_6033" data-name="Caminho 6033" d="M9.749,3h13.5A6.749,6.749,0,0,1,30,9.749v13.5A6.749,6.749,0,0,1,23.248,30H9.749A6.749,6.749,0,0,1,3,23.248V9.749A6.749,6.749,0,0,1,9.749,3Z" fill="none" stroke="#fff" stroke-linecap="round" stroke-linejoin="round" stroke-width="3"/>
    <path id="Caminho_6034" data-name="Caminho 6034" d="M22.805,16.542a5.4,5.4,0,1,1-4.549-4.549,5.4,5.4,0,0,1,4.549,4.549Z" transform="translate(-0.907 -0.894)" fill="none" stroke="#fff" stroke-linecap="round" stroke-linejoin="round" stroke-width="3"/>
    <path id="Caminho_6035" data-name="Caminho 6035" d="M26.25,9.75h0" transform="translate(-2.327 -0.676)" fill="none" stroke="#fff" stroke-linecap="round" stroke-linejoin="round" stroke-width="3"/>
  </g>
</svg>
