<svg xmlns="http://www.w3.org/2000/svg" width="62.514" height="66.166" viewBox="0 0 62.514 66.166">
  <g id="Redação" transform="translate(635.123 297.15)">
    <g id="Grupo_731" data-name="Grupo 731" transform="translate(-634.973 -297)">
      <path id="Caminho_6076" data-name="Caminho 6076" d="M98.932,155.526H60.294a.961.961,0,1,0,0,1.922H98.932a.961.961,0,1,0,0-1.922Z" transform="translate(-53.633 -135.518)" fill="#3eb28b" stroke="#3eb28b" stroke-width="0.3"/>
      <path id="Caminho_6077" data-name="Caminho 6077" d="M98.932,208.843H60.294a.961.961,0,1,0,0,1.922H98.932a.961.961,0,1,0,0-1.922Z" transform="translate(-53.633 -181.976)" fill="#3eb28b" stroke="#3eb28b" stroke-width="0.3"/>
      <path id="Caminho_6078" data-name="Caminho 6078" d="M99.893,263.12a.961.961,0,0,0-.961-.961H60.294a.961.961,0,1,0,0,1.922H98.932A.961.961,0,0,0,99.893,263.12Z" transform="translate(-53.633 -228.434)" fill="#3eb28b" stroke="#3eb28b" stroke-width="0.3"/>
      <path id="Caminho_6079" data-name="Caminho 6079" d="M87.971,316.437a.961.961,0,0,0-.961-.961H60.294a.961.961,0,1,0,0,1.922H87.01a.961.961,0,0,0,.961-.961Z" transform="translate(-53.633 -274.892)" fill="#3eb28b" stroke="#3eb28b" stroke-width="0.3"/>
      <path id="Caminho_6080" data-name="Caminho 6080" d="M81.03,369.754a.961.961,0,0,0-.961-.961H60.294a.961.961,0,0,0,0,1.922H80.069A.961.961,0,0,0,81.03,369.754Z" transform="translate(-53.633 -321.35)" fill="#3eb28b" stroke="#3eb28b" stroke-width="0.3"/>
      <path id="Caminho_6081" data-name="Caminho 6081" d="M60.294,422.11a.961.961,0,1,0,0,1.922H73.245a.961.961,0,0,0,0-1.922Z" transform="translate(-53.633 -367.808)" fill="#3eb28b" stroke="#3eb28b" stroke-width="0.3"/>
      <path id="Caminho_6082" data-name="Caminho 6082" d="M46.621,63.9l2.745-1.185a4.19,4.19,0,0,0,1.309-.888L76.033,36.473a3.388,3.388,0,0,0,0-4.795l-1.8-1.8a3.394,3.394,0,0,0-4.795,0L44.081,55.237h0a4.192,4.192,0,0,0-.887,1.307L40.186,63.51a1.7,1.7,0,0,0-.121.434H19.973a3.027,3.027,0,0,1-3.024-3.024V12.779H65.064V29.787a.961.961,0,1,0,1.922,0V4.946A4.952,4.952,0,0,0,62.041,0H19.973a4.952,4.952,0,0,0-4.946,4.946V60.92a4.952,4.952,0,0,0,4.946,4.946H62.04a4.952,4.952,0,0,0,4.946-4.946V50.054a.961.961,0,1,0-1.922,0V60.92a3.027,3.027,0,0,1-3.024,3.024H46.53l.089-.038h0ZM16.949,4.946a3.027,3.027,0,0,1,3.024-3.024H62.04a3.027,3.027,0,0,1,3.024,3.024v5.911H16.949ZM70.8,31.238a1.47,1.47,0,0,1,2.076,0l1.8,1.8a1.47,1.47,0,0,1,0,2.076l-2.1,2.1L68.7,33.339Zm-3.46,3.46,3.876,3.876L69.828,39.96l-3.876-3.876Zm-2.745,2.745,3.876,3.876L50,59.793l-3.876-3.876ZM42.187,63.725l1.032-2.39,1.358,1.358Zm4.289-1.851-2.438-2.438.869-2.014L48.489,61Z" transform="translate(-15.027 0)" fill="#fe7c34" stroke="#fe7c34" stroke-width="0.3"/>
    </g>
  </g>
</svg>
