<svg xmlns="http://www.w3.org/2000/svg" width="59.288" height="59.5" viewBox="0 0 59.288 59.5">
  <g id="BI" transform="translate(-923.712 -573.75)">
    <path id="Caminho_6070" data-name="Caminho 6070" d="M1177.18,826a1.179,1.179,0,0,0-1.18,1.18v14.16a1.18,1.18,0,1,0,2.36,0V827.18A1.179,1.179,0,0,0,1177.18,826Z" transform="translate(-209.52 -209.52)" fill="#fe7c34"/>
    <path id="Caminho_6071" data-name="Caminho 6071" d="M933.44,596.42a20.082,20.082,0,0,1,20.06-20.06c5.117,0,10.4,2.448,14.488,6.716a1.179,1.179,0,1,0,1.7-1.632C965.161,576.713,959.258,574,953.5,574a22.446,22.446,0,0,0-22.418,22.089l-6.914,11.523a1.18,1.18,0,0,0,.178,1.442l2.36,2.36a1.179,1.179,0,0,0,.834.346h3.54v5.9a8.27,8.27,0,0,0,8.26,8.26h3.54v5.9a1.18,1.18,0,0,0,2.36,0v-7.08a1.179,1.179,0,0,0-1.18-1.18h-4.72a5.907,5.907,0,0,1-5.9-5.9v-7.08a1.179,1.179,0,0,0-1.18-1.18h-4.232l-1.363-1.363,6.607-11.01A1.174,1.174,0,0,0,933.44,596.42Z" fill="#fe7c34" stroke="#fe7c34" stroke-width="0.5"/>
    <path id="Caminho_6072" data-name="Caminho 6072" d="M1130.776,658.452c0-.1,0-.194,0-.292s0-.195,0-.292l3.072-2.3a1.18,1.18,0,0,0,.348-1.471l-2.36-4.72a1.181,1.181,0,0,0-1.494-.568l-3.26,1.3a10.734,10.734,0,0,0-2.711-1.687l-.695-3.472a1.181,1.181,0,0,0-1.157-.948h-4.72a1.181,1.181,0,0,0-1.157.948l-.695,3.472a10.731,10.731,0,0,0-2.71,1.687l-3.26-1.3a1.181,1.181,0,0,0-1.494.568l-2.36,4.72a1.18,1.18,0,0,0,.348,1.471l3.072,2.306c0,.1,0,.192,0,.29s0,.195,0,.29l-3.072,2.306a1.18,1.18,0,0,0-.348,1.471l2.36,4.72a1.181,1.181,0,0,0,1.494.568l3.26-1.3a10.731,10.731,0,0,0,2.71,1.687l.695,3.472a1.181,1.181,0,0,0,1.157.948h4.72a1.181,1.181,0,0,0,1.157-.948l.695-3.472a10.734,10.734,0,0,0,2.711-1.687l3.26,1.3a1.181,1.181,0,0,0,1.494-.568l2.36-4.72a1.18,1.18,0,0,0-.348-1.471Zm-.566,6.469-2.942-1.177A1.184,1.184,0,0,0,1126,664a8.3,8.3,0,0,1-3.052,1.923,1.177,1.177,0,0,0-.759.879l-.63,3.153h-2.786l-.63-3.153a1.177,1.177,0,0,0-.759-.879,8.3,8.3,0,0,1-3.052-1.923,1.185,1.185,0,0,0-1.272-.26l-2.942,1.177-1.435-2.868,2.794-2.1a1.177,1.177,0,0,0,.468-1.045c-.021-.248-.038-.5-.038-.751s.017-.5.038-.751a1.177,1.177,0,0,0-.468-1.045l-2.794-2.1,1.435-2.868,2.942,1.177a1.185,1.185,0,0,0,1.272-.26,8.3,8.3,0,0,1,3.052-1.923,1.177,1.177,0,0,0,.759-.879l.63-3.153h2.786l.63,3.153a1.177,1.177,0,0,0,.759.879,8.3,8.3,0,0,1,3.052,1.923,1.184,1.184,0,0,0,1.272.26l2.942-1.177,1.435,2.868-2.794,2.1a1.18,1.18,0,0,0-.468,1.05c.022.247.038.494.038.747s-.016.5-.038.747a1.181,1.181,0,0,0,.468,1.05l2.794,2.1Z" transform="translate(-151.32 -58.2)" fill="#3eb28b"/>
    <path id="Caminho_6073" data-name="Caminho 6073" d="M1166.72,700a4.72,4.72,0,1,0,4.72,4.72A4.725,4.725,0,0,0,1166.72,700Zm0,7.08a2.36,2.36,0,1,1,2.36-2.36A2.363,2.363,0,0,1,1166.72,707.08Z" transform="translate(-197.88 -104.76)" fill="#3eb28b"/>
  </g>
</svg>
