<svg xmlns="http://www.w3.org/2000/svg" width="58.634" height="55.608" viewBox="0 0 58.634 55.608">
  <g id="Motion" transform="translate(-2 -4.113)">
    <path id="Caminho_6083" data-name="Caminho 6083" d="M59.656,32.824a.966.966,0,0,0-.977.955v9.548a2.9,2.9,0,0,1-2.932,2.864H7.863a3.865,3.865,0,0,1-3.909-3.819v-29.6A2.9,2.9,0,0,1,6.886,9.91H23.5A.955.955,0,1,0,23.5,8H6.886A4.837,4.837,0,0,0,2,12.774v29.6A5.8,5.8,0,0,0,7.863,48.1H20.123a9.443,9.443,0,0,1-5.143,4.783l-2.418.945H10.8a2.9,2.9,0,0,0-2.932,2.864V58.6a.966.966,0,0,0,.977.955H24.476a.955.955,0,1,0,0-1.91H9.818v-.955a.966.966,0,0,1,.977-.955H51.839a.966.966,0,0,1,.977.955v.955H28.385a.955.955,0,1,0,0,1.91H53.793a.966.966,0,0,0,.977-.955v-1.91a2.9,2.9,0,0,0-2.932-2.864H50.072l-2.418-.945A9.443,9.443,0,0,1,42.511,48.1H55.747a4.837,4.837,0,0,0,4.886-4.774V33.779A.966.966,0,0,0,59.656,32.824ZM45.225,53.829H17.409A11.275,11.275,0,0,0,22.248,48.1H40.385A11.275,11.275,0,0,0,45.225,53.829Z" transform="translate(0 0.163)" fill="#fe7c34"/>
    <path id="Caminho_6084" data-name="Caminho 6084" d="M57.545,8H38.027a1.027,1.027,0,0,0,0,2.054H57.545a3.082,3.082,0,0,1,3.082,3.082V30.494a1.156,1.156,0,0,0,1.057,1.141,1.107,1.107,0,0,0,1-1.141V13.136A5.142,5.142,0,0,0,57.545,8Z" transform="translate(-2.047 0.163)" fill="#fe7c34"/>
    <path id="Caminho_6085" data-name="Caminho 6085" d="M18.972,11.376l-1.736,5.1a2.392,2.392,0,0,0,.068,1.711,2.066,2.066,0,0,0,1.166,1.134,1.917,1.917,0,0,0,2.333-.95l1.463-2.683h1.049a.735.735,0,1,0,1.463,0v-.8a.771.771,0,0,0-.731-.8H21.851a.72.72,0,0,0-.627.39l-1.676,3.071a.5.5,0,0,1-.617.25.546.546,0,0,1-.309-.3.632.632,0,0,1-.018-.452l1.588-4.66,3.913-.715H29.64L33.1,14.7a.684.684,0,0,0,.561.168l3.479-.547a.659.659,0,0,1,.562.183.8.8,0,0,1,.244.587.756.756,0,0,1-.618.77l-4.342.6-2.706-1.789a.674.674,0,0,0-.739-.013.822.822,0,0,0-.372.7V18.1h-5.12a.756.756,0,0,0-.721.672l-.648,4.278-3.218.684H16.731a.771.771,0,0,0-.731.8v5.634a.771.771,0,0,0,.731.8,3.68,3.68,0,0,0,3.393-2.543l6.188-.681a.736.736,0,0,0,.581-.441L28.761,23.2,30.7,24.27l.67,4.427a.756.756,0,0,0,.72.67h2.194a2.222,2.222,0,0,1,2.069,1.61H32.091a.809.809,0,0,0,0,1.61h5.12a.771.771,0,0,0,.731-.8,4.037,4.037,0,0,0-2.323-3.738l-.607-6.009a.82.82,0,0,0-.321-.581l-4.063-2.981v-1.69l1.818,1.2a.672.672,0,0,0,.467.109l4.592-.631a2.355,2.355,0,0,0,1.862-2.682,2.217,2.217,0,0,0-2.437-2.049l-3.166.5-3.41-3a.691.691,0,0,0-.457-.175H29.49a3.432,3.432,0,0,0,.407-1.61V2.8a.771.771,0,0,0-.731-.8H27.7a3.859,3.859,0,0,0-3.657,4.025V8.439a3.432,3.432,0,0,0,.407,1.61h-.407a.6.6,0,0,0-.12.011l-4.388.8a.752.752,0,0,0-.565.511Zm-.046,15.576a2.417,2.417,0,0,1-1.463,2.277V25.342h1.463Zm15.193.8H32.71L32.08,23.6a.8.8,0,0,0-.394-.588L28.761,21.4a.7.7,0,0,0-.982.361L25.766,26.2l-5.378.6v-1.61l3.064-.652a.773.773,0,0,0,.585-.658l.628-4.164h5.012L33.6,22.585ZM27.7,3.61h.731V5.22h-2.8A2.222,2.222,0,0,1,27.7,3.61ZM25.508,8.439V6.829h2.926v1.61a1.47,1.47,0,1,1-2.926,0Z" transform="translate(3.151 2.113)" fill="#3eb28b"/>
    <path id="Caminho_6086" data-name="Caminho 6086" d="M22.272,40a3.082,3.082,0,0,0-2.893,2.054H13.027a1.027,1.027,0,0,0,0,2.054H19.38a3.063,3.063,0,0,0,5.785,0H54.116a1.027,1.027,0,1,0,0-2.054H25.165A3.082,3.082,0,0,0,22.272,40Zm0,4.109A1.027,1.027,0,1,1,23.3,43.082,1.027,1.027,0,0,1,22.272,44.109Z" transform="translate(-2.728 -1.718)" fill="#3eb28b"/>
    <path id="Caminho_6088" data-name="Caminho 6088" d="M7.027,21.054h4.109a1.027,1.027,0,1,0,0-2.054H7.027a1.027,1.027,0,0,0,0,2.054Z" transform="translate(0.109 -0.684)" fill="#fe7c34"/>
    <path id="Caminho_6089" data-name="Caminho 6089" d="M7.027,25.054h4.109a1.027,1.027,0,1,0,0-2.054H7.027a1.027,1.027,0,0,0,0,2.054Z" transform="translate(0.109 -0.845)" fill="#3eb28b"/>
    <path id="Caminho_6090" data-name="Caminho 6090" d="M12.163,28.027A1.027,1.027,0,0,0,11.136,27H7.027a1.027,1.027,0,1,0,0,2.054h4.109A1.027,1.027,0,0,0,12.163,28.027Z" transform="translate(0.109 -1.006)" fill="#fe7c34"/>
    <path id="Caminho_6091" data-name="Caminho 6091" d="M11.136,32.027A1.027,1.027,0,0,0,10.109,31H7.027a1.027,1.027,0,1,0,0,2.054h3.082A1.027,1.027,0,0,0,11.136,32.027Z" transform="translate(0.109 -1.167)" fill="#3eb28b"/>
    <path id="Caminho_6092" data-name="Caminho 6092" d="M7.027,35a1.027,1.027,0,1,0,0,2.054H9.082a1.027,1.027,0,0,0,0-2.054Z" transform="translate(0.109 -1.327)" fill="#fe7c34"/>
  </g>
</svg>
