<svg xmlns="http://www.w3.org/2000/svg" width="58.788" height="58.702" viewBox="0 0 58.788 58.702">
  <g id="Arte_Fianlista" data-name="Arte Fianlista" transform="translate(-335.664 -1749.75)">
    <path id="Caminho_6108" data-name="Caminho 6108" d="M347.979,1777.594a1.164,1.164,0,0,0,1.646-1.646l-10.815-10.815,12.323-12.322,3.592,3.592-4.415,4.415a1.164,1.164,0,0,0,1.646,1.646l4.415-4.415,3.01,3.01-6.743,6.743a1.164,1.164,0,1,0,1.646,1.646l6.743-6.743.921.921a1.164,1.164,0,0,0,1.646-1.646l-11.638-11.638a1.164,1.164,0,0,0-1.646,0l-13.968,13.968a1.164,1.164,0,0,0,0,1.646Z" transform="translate(0 0)" fill="#3eb28b" stroke="#3eb28b" stroke-width="0.5"/>
    <path id="Caminho_6109" data-name="Caminho 6109" d="M533.942,1932.328a1.164,1.164,0,1,0-1.646,1.646l.925.925-6.743,6.743a1.164,1.164,0,1,0,1.646,1.646l6.743-6.743,3.01,3.01-4.415,4.415a1.164,1.164,0,0,0,1.646,1.646l4.415-4.415,3.592,3.592-12.323,12.323-10.82-10.82a1.164,1.164,0,0,0-1.646,1.646l11.643,11.643a1.164,1.164,0,0,0,1.646,0l13.969-13.968a1.164,1.164,0,0,0,0-1.646Z" transform="translate(-151.724 -151.724)" fill="#3eb28b" stroke="#3eb28b" stroke-width="0.5"/>
    <path id="Caminho_6110" data-name="Caminho 6110" d="M388.041,1768.284l4.456-4.456a5.819,5.819,0,0,0,0-8.231l-3.891-3.891a5.819,5.819,0,0,0-8.231,0l-40.541,40.541a1.167,1.167,0,0,0-.306.541l-3.492,13.968a1.163,1.163,0,0,0,1.129,1.446,1.136,1.136,0,0,0,.282-.035l13.969-3.492c.035-.009.064-.027.1-.039a1.092,1.092,0,0,0,.1-.04,1.16,1.16,0,0,0,.336-.223l.005,0Zm-49.277,37.155,2.944-11.773,40.313-40.314a3.5,3.5,0,0,1,4.939,0l3.891,3.891a3.5,3.5,0,0,1,0,4.939l-3.633,3.633-6.161-6.161a1.164,1.164,0,1,0-1.646,1.646l6.161,6.161L351.133,1801.9l-6.161-6.161a1.164,1.164,0,1,0-1.646,1.646l5.53,5.53Z" transform="translate(-0.001)" fill="#fe7c34" stroke="#fe7c34" stroke-width="0.5"/>
  </g>
</svg>
