<svg xmlns="http://www.w3.org/2000/svg" xmlns:xlink="http://www.w3.org/1999/xlink" width="89.5" height="83.066" viewBox="0 0 89.5 83.066">
  <defs>
    <linearGradient id="linear-gradient" x1="0.5" x2="0.5" y2="1" gradientUnits="objectBoundingBox">
      <stop offset="0" stop-color="#fff"/>
      <stop offset="1" stop-color="#fff" stop-opacity="0"/>
    </linearGradient>
  </defs>
  <g id="Grupo_645" data-name="Grupo 645" transform="translate(-137.038 -3138)">
    <ellipse id="Elipse_76" data-name="Elipse 76" cx="42.269" cy="41.533" rx="42.269" ry="41.533" transform="translate(142 3138)" fill="#3eb28b" opacity="0.1"/>
    <path id="Caminho_26" data-name="Caminho 26" d="M246.154,3303.847H231.538" transform="translate(-92 -142.296)" fill="none" stroke="#fe7c34" stroke-linecap="round" stroke-width="5"/>
    <path id="Caminho_27" data-name="Caminho 27" d="M238.846,3303.847h-7.308" transform="translate(-84.692 -132.802)" fill="none" stroke="#fe7c34" stroke-linecap="round" stroke-width="5"/>
    <g id="Grupo_80" data-name="Grupo 80" transform="translate(161.734 3157.126)">
      <ellipse id="Elipse_57" data-name="Elipse 57" cx="18" cy="10.5" rx="18" ry="10.5" transform="translate(44.483 29.67) rotate(-177)" opacity="0.2" fill="url(#linear-gradient)"/>
      <ellipse id="Elipse_58" data-name="Elipse 58" cx="18" cy="10.5" rx="18" ry="10.5" transform="matrix(-0.695, 0.719, -0.719, -0.695, 40.114, 14.588)" opacity="0.1" fill="url(#linear-gradient)"/>
    </g>
    <g id="united" transform="translate(160.573 3156.38)">
      <path id="Caminho_5982" data-name="Caminho 5982" d="M202.187,447.75l-.139.68.134-.681a.694.694,0,1,0-.268,1.362l.013,0a.709.709,0,0,0,.131.013.695.695,0,0,0,.129-1.377Zm0,0" transform="translate(-182.715 -406.292)" fill="#3eb28b" stroke="#3eb28b" stroke-width="0.5"/>
      <path id="Caminho_5983" data-name="Caminho 5983" d="M261.573,450.259l.069.691-.071-.69a.694.694,0,0,0,.07,1.385c.024,0,.048,0,.072,0l.019,0a.694.694,0,0,0-.159-1.379Zm0,0" transform="translate(-236.794 -408.578)" fill="#3eb28b" stroke="#3eb28b" stroke-width="0.5"/>
      <path id="Caminho_5984" data-name="Caminho 5984" d="M231.832,451.232h-.01a.69.69,0,0,0-.72.663.7.7,0,0,0,.667.725h.032a.694.694,0,0,0,.031-1.388Zm0,0" transform="translate(-209.71 -409.463)" fill="#3eb28b" stroke="#3eb28b" stroke-width="0.5"/>
      <path id="Caminho_5985" data-name="Caminho 5985" d="M173.509,439.834l-.009,0a.69.69,0,0,0-.884.42.7.7,0,1,0,.892-.417Zm0,0" transform="translate(-156.602 -399.081)" fill="#3eb28b" stroke="#3eb28b" stroke-width="0.5"/>
      <path id="Caminho_5986" data-name="Caminho 5986" d="M290.875,444.825l.171.673-.173-.672a.694.694,0,1,0,.346,1.344l.018,0a.694.694,0,0,0-.363-1.34Zm0,0" transform="translate(-263.476 -403.63)" fill="#3eb28b" stroke="#3eb28b" stroke-width="0.5"/>
      <path id="Caminho_5987" data-name="Caminho 5987" d="M319.01,435.011l.275.637-.277-.636a.694.694,0,1,0,.554,1.273l.017-.008a.694.694,0,0,0-.569-1.266Zm0,0" transform="translate(-289.1 -394.692)" fill="#3eb28b" stroke="#3eb28b" stroke-width="0.5"/>
      <path id="Caminho_5988" data-name="Caminho 5988" d="M147.175,80.078a.694.694,0,1,0-.324-1.307l-.008,0a.693.693,0,0,0,.333,1.3Zm0,0" transform="translate(-132.919 -71.405)" fill="#3eb28b" stroke="#3eb28b" stroke-width="0.5"/>
      <path id="Caminho_5989" data-name="Caminho 5989" d="M63.608,164.551a.694.694,0,0,0,.938-.293l.012-.024a.694.694,0,1,0-.95.317Zm0,0" transform="translate(-57.383 -148.124)" fill="#3eb28b" stroke="#3eb28b" stroke-width="0.5"/>
      <path id="Caminho_5990" data-name="Caminho 5990" d="M52.068,192.343a.693.693,0,0,0,.88-.435l.009-.027a.694.694,0,1,0-.889.462Zm0,0" transform="translate(-46.82 -173.304)" fill="#3eb28b" stroke="#3eb28b" stroke-width="0.5"/>
      <path id="Caminho_5991" data-name="Caminho 5991" d="M79.249,138.859a.694.694,0,0,0,.97-.153l.009-.012a.694.694,0,0,0-1.13-.807l.559.411-.562-.409A.694.694,0,0,0,79.249,138.859Zm0,0" transform="translate(-71.654 -124.861)" fill="#3eb28b" stroke="#3eb28b" stroke-width="0.5"/>
      <path id="Caminho_5992" data-name="Caminho 5992" d="M121.739,96.216a.7.7,0,1,0-.4-1.262l-.017.013a.695.695,0,0,0,.419,1.249Zm0,0" transform="translate(-109.84 -86.044)" fill="#3eb28b" stroke="#3eb28b" stroke-width="0.5"/>
      <path id="Caminho_5993" data-name="Caminho 5993" d="M49.67,310.528a.694.694,0,1,0-.009-.03Zm0,0" transform="translate(-45.042 -280.961)" fill="#3eb28b" stroke="#3eb28b" stroke-width="0.5"/>
      <path id="Caminho_5994" data-name="Caminho 5994" d="M99.084,116a.7.7,0,1,0-.485-1.19l-.012.012a.694.694,0,0,0,.5,1.179Zm0,0" transform="translate(-89.282 -103.999)" fill="#3eb28b" stroke="#3eb28b" stroke-width="0.5"/>
      <path id="Caminho_5995" data-name="Caminho 5995" d="M44.732,280.8a.694.694,0,0,0-1.378.172l0,.028a.693.693,0,0,0,.686.592.7.7,0,0,0,.688-.792Zm0,0" transform="translate(-39.337 -254.257)" fill="#3eb28b" stroke="#3eb28b" stroke-width="0.5"/>
      <path id="Caminho_5996" data-name="Caminho 5996" d="M42.265,251.546h.021a.694.694,0,0,0,.694-.674v-.03a.694.694,0,1,0-.715.7Zm0,0" transform="translate(-37.741 -226.994)" fill="#3eb28b" stroke="#3eb28b" stroke-width="0.5"/>
      <path id="Caminho_5997" data-name="Caminho 5997" d="M44.9,221.571a.716.716,0,0,0,.123.011.7.7,0,0,0,.683-.572c0-.01,0-.02,0-.03a.694.694,0,1,0-.811.592Zm0,0" transform="translate(-40.229 -199.803)" fill="#3eb28b" stroke="#3eb28b" stroke-width="0.5"/>
      <path id="Caminho_5998" data-name="Caminho 5998" d="M403.042,142.85a.694.694,0,0,0,1.143-.788l-.577.386.575-.389a.694.694,0,1,0-1.149.779Zm0,0" transform="translate(-365.619 -128.633)" fill="#3eb28b" stroke="#3eb28b" stroke-width="0.5"/>
      <path id="Caminho_5999" data-name="Caminho 5999" d="M436.557,229.027a.694.694,0,0,0-.612.768l0,.03a.7.7,0,0,0,.687.6.709.709,0,0,0,.1-.007.7.7,0,0,0-.177-1.387Zm0,0" transform="translate(-395.588 -207.824)" fill="#3eb28b" stroke="#3eb28b" stroke-width="0.5"/>
      <path id="Caminho_6000" data-name="Caminho 6000" d="M429.667,199.176l0,.009a.694.694,0,0,0,.666.5.682.682,0,0,0,.2-.029.694.694,0,0,0,.47-.862l0-.009a.694.694,0,1,0-1.332.392Zm0,0" transform="translate(-389.87 -179.932)" fill="#3eb28b" stroke="#3eb28b" stroke-width="0.5"/>
      <path id="Caminho_6001" data-name="Caminho 6001" d="M418.608,169.966a.7.7,0,0,0,.626.39.694.694,0,0,0,.622-1l-.629.293.628-.295a.694.694,0,0,0-1.257.589Zm0,0" transform="translate(-379.791 -153.318)" fill="#3eb28b" stroke="#3eb28b" stroke-width="0.5"/>
      <path id="Caminho_6002" data-name="Caminho 6002" d="M383.4,118.538a.7.7,0,1,0-.021-.022Zm0,0" transform="translate(-347.724 -106.488)" fill="#3eb28b" stroke="#3eb28b" stroke-width="0.5"/>
      <path id="Caminho_6003" data-name="Caminho 6003" d="M438.031,260.384a.7.7,0,0,0-.059,1.4h.039a.694.694,0,0,0,.692-.656V261.1A.693.693,0,0,0,438.031,260.384Zm0,0" transform="translate(-396.837 -236.282)" fill="#3eb28b" stroke="#3eb28b" stroke-width="0.5"/>
      <path id="Caminho_6004" data-name="Caminho 6004" d="M333.914,80.573l.017.009a.692.692,0,0,0,.935-.285.7.7,0,0,0-.282-.94l-.336.607.334-.609a.694.694,0,1,0-.667,1.217Zm0,0" transform="translate(-302.678 -71.933)" fill="#3eb28b" stroke="#3eb28b" stroke-width="0.5"/>
      <path id="Caminho_6005" data-name="Caminho 6005" d="M360.154,97.591l.011.008A.694.694,0,0,0,361,96.493l0,0a.694.694,0,1,0-.845,1.1Zm0,0" transform="translate(-326.57 -87.428)" fill="#3eb28b" stroke="#3eb28b" stroke-width="0.5"/>
      <path id="Caminho_6006" data-name="Caminho 6006" d="M46.964,34.612l-3.259-3.265a1.466,1.466,0,0,0-2.076,0l-.076.076-.214-.214a2.8,2.8,0,0,1-.608-.909.677.677,0,0,0-.05-.129,2.807,2.807,0,0,1-.162-.943V28.3a.7.7,0,1,0,0-1.234,3.914,3.914,0,0,0-1.147-2.611l-3.162-3.167a3.751,3.751,0,0,0-4.8-.431l-.336-.337v-7.94a3.942,3.942,0,0,0-.978-2.6,2.8,2.8,0,0,1-.7-1.849V7.554h.048a1.469,1.469,0,0,0,1.468-1.468V1.468A1.469,1.469,0,0,0,29.449,0H16.481a1.469,1.469,0,0,0-1.468,1.468V6.086a1.469,1.469,0,0,0,1.468,1.468h.107v.3a2.785,2.785,0,0,1-.819,1.981l-1.4,1.4a3.917,3.917,0,0,0-1.152,2.785v4.479a3.743,3.743,0,0,0,.4,1.692,3.728,3.728,0,0,0-2.436,1.095L8.023,24.46a3.917,3.917,0,0,0-1.152,2.785v1.983a2.785,2.785,0,0,1-.819,1.981l-.212.212,0,0-.075-.076a1.466,1.466,0,0,0-2.076,0L.428,34.612a1.472,1.472,0,0,0,0,2.076l1.116,1.118a.694.694,0,1,0,.982-.981L1.411,35.707a.081.081,0,0,1,0-.114L4.67,32.329a.078.078,0,0,1,.11,0l.567.568h0l7.737,7.75.867.869a.081.081,0,0,1,0,.114l-3.259,3.265a.078.078,0,0,1-.111,0l-6.089-6.1a.694.694,0,1,0-.983.981l6.089,6.1a1.466,1.466,0,0,0,2.076,0l3.259-3.265a1.471,1.471,0,0,0,0-2.076L14.9,40.5l.411-.412a2.79,2.79,0,0,1,1.8-.814,3.928,3.928,0,0,0,2.528-1.146l2.994-3a2.377,2.377,0,0,0,1.718-1.811,2.367,2.367,0,0,0,3.383-2.142V29.525a2.366,2.366,0,0,0,3.347-2.158V22.493l2.135,2.146a.694.694,0,0,0,.984-.98l-1.78-1.789a2.364,2.364,0,0,1,2.811.4l3.162,3.167a2.538,2.538,0,0,1,.746,1.8v1.983a4.165,4.165,0,0,0,1.225,2.962l.215.216-1.007,1.009-6.09,6.1-.34-.34-.01-.01-.06-.06a4.18,4.18,0,0,0-2.688-1.219,2.546,2.546,0,0,1-1.637-.743l-2.281-2.269a.694.694,0,1,0-.979.984l2.28,2.267a3.928,3.928,0,0,0,2.528,1.146,2.791,2.791,0,0,1,1.8.814l.034.034a.669.669,0,0,0,.057.058l.32.32-.035.036a1.471,1.471,0,0,0,0,2.076l3.259,3.265a1.467,1.467,0,0,0,2.076,0l9.17-9.186A1.471,1.471,0,0,0,46.964,34.612Zm-5.978-6.9-.013,0-.127-.026ZM18.65,37.145a2.541,2.541,0,0,1-1.635.742,4.18,4.18,0,0,0-2.689,1.219l-.41.41-.369-.37-.014-.014L6.82,32.406l.215-.216A4.165,4.165,0,0,0,8.26,29.228V27.245a2.536,2.536,0,0,1,.746-1.8l3.162-3.167a2.364,2.364,0,0,1,2.814-.4L13.2,23.659a.694.694,0,0,0,.983.981l2.13-2.134v8.667a2.367,2.367,0,0,0,3.4,2.136,2.379,2.379,0,0,0,1.177,1.6Zm11.036-9.778a.98.98,0,1,1-1.959,0V19.623a.694.694,0,1,0-1.388,0v11.55a.979.979,0,0,1-1.945.162V19.615a.7.7,0,0,0-1.4.008v11.55a2.38,2.38,0,0,0,.014.26v1.4a.979.979,0,1,1-1.959,0V19.607a.694.694,0,0,0-1.389,0V31.173a.979.979,0,1,1-1.959,0V18.259a.694.694,0,1,0-1.388,0v2.389a.681.681,0,0,0-.167.08,2.376,2.376,0,0,1-1.539-2.222V14.027a2.538,2.538,0,0,1,.746-1.8l1.4-1.4a4.164,4.164,0,0,0,1.225-2.962v-.3h1.4a.694.694,0,0,0,0-1.388H16.481a.079.079,0,0,1-.079-.08V1.468a.079.079,0,0,1,.079-.08H29.449a.08.08,0,0,1,.08.08V6.086a.079.079,0,0,1-.08.08H22.632a.694.694,0,0,0,0,1.388h5.381v.582a4.192,4.192,0,0,0,1.04,2.765,2.552,2.552,0,0,1,.634,1.684Zm16.294,8.34-9.17,9.186a.074.074,0,0,1-.055.023.075.075,0,0,1-.055-.023l-3.259-3.265a.081.081,0,0,1,0-.114l.525-.526h0l5.323-5.333,3.322-3.328a.077.077,0,0,1,.11,0l3.259,3.265A.081.081,0,0,1,45.981,35.707Zm0,0" fill="#3eb28b" stroke="#3eb28b" stroke-width="0.5"/>
      <path id="Caminho_6007" data-name="Caminho 6007" d="M194.555,32.8a.741.741,0,1,0,.739.741A.741.741,0,0,0,194.555,32.8Zm0,0" transform="translate(-175.876 -29.768)" fill="#3eb28b" stroke="#3eb28b" stroke-width="0.5"/>
      <path id="Caminho_6008" data-name="Caminho 6008" d="M456.154,374.688a.741.741,0,1,0,.739.741A.741.741,0,0,0,456.154,374.688Zm0,0" transform="translate(-413.259 -340.005)" fill="#3eb28b" stroke="#3eb28b" stroke-width="0.5"/>
      <path id="Caminho_6009" data-name="Caminho 6009" d="M110.49,443.944a.739.739,0,1,0-.739.741A.741.741,0,0,0,110.49,443.944Zm0,0" transform="translate(-98.921 -402.179)" fill="#3eb28b" stroke="#3eb28b" stroke-width="0.5"/>
    </g>
  </g>
</svg>
