<svg xmlns="http://www.w3.org/2000/svg" width="53.5" height="53.5" viewBox="0 0 53.5 53.5">
  <g id="Produção" transform="translate(-3863.75 -573.75)">
    <path id="Caminho_6066" data-name="Caminho 6066" d="M3865.06,605.8a1.059,1.059,0,0,0,1.06-1.06V600.5h5.3a1.06,1.06,0,1,0,0-2.12h-5.3v-10.6h11.66a1.06,1.06,0,1,0,0-2.12h-11.66V579.3a3.184,3.184,0,0,1,3.18-3.18h8.48a3.184,3.184,0,0,1,3.18,3.18v11.66a1.06,1.06,0,1,0,2.12,0V579.3a5.306,5.306,0,0,0-5.3-5.3h-8.48a5.306,5.306,0,0,0-5.3,5.3v25.44A1.059,1.059,0,0,0,3865.06,605.8Z" fill="#fe7c34" stroke="#fe7c34" stroke-width="0.5"/>
    <path id="Caminho_6067" data-name="Caminho 6067" d="M3920.3,641.122a1.06,1.06,0,0,0,1.5.025l7.33-7.1,7.084,7.084a1.06,1.06,0,1,0,1.5-1.5l-7.059-7.059,7.094-6.868,8.006,8.006a1.06,1.06,0,1,0,1.5-1.5l-7.982-7.982,5.347-5.177a3.184,3.184,0,0,1,4.5,0l6,6a3.18,3.18,0,0,1,.012,4.485L3944.7,639.623a1.06,1.06,0,1,0,1.474,1.524l10.43-10.1a5.307,5.307,0,0,0,0-7.5l-6-6a5.3,5.3,0,0,0-7.483-.012l-22.806,22.078A1.06,1.06,0,0,0,3920.3,641.122Z" transform="translate(-47.519 -35.645)" fill="#3eb28b" stroke="#3eb28b" stroke-width="0.5"/>
    <path id="Caminho_6068" data-name="Caminho 6068" d="M3911.7,798h-42.4a5.306,5.306,0,0,0-5.3,5.3v8.48a5.306,5.306,0,0,0,5.3,5.3h42.4a5.306,5.306,0,0,0,5.3-5.3V803.3A5.306,5.306,0,0,0,3911.7,798Zm3.18,13.78a3.183,3.183,0,0,1-3.18,3.18h-42.4a3.183,3.183,0,0,1-3.18-3.18V803.3a3.184,3.184,0,0,1,3.18-3.18h20.14v11.66a1.06,1.06,0,1,0,2.12,0V800.12h10.6v11.66a1.06,1.06,0,1,0,2.12,0V800.12h7.42a3.184,3.184,0,0,1,3.18,3.18Z" transform="translate(0 -190.08)" fill="#fe7c34" stroke="#fe7c34" stroke-width="0.5"/>
    <path id="Caminho_6069" data-name="Caminho 6069" d="M3909.18,840a3.18,3.18,0,1,0,3.18,3.18A3.184,3.184,0,0,0,3909.18,840Zm0,4.24a1.06,1.06,0,1,1,1.06-1.06A1.061,1.061,0,0,1,3909.18,844.24Z" transform="translate(-35.64 -225.72)" fill="#3eb28b" stroke="#3eb28b" stroke-width="0.5"/>
  </g>
</svg>
