<svg xmlns="http://www.w3.org/2000/svg" width="78.336" height="58.52" viewBox="0 0 78.336 58.52">
  <g id="Atendimento" transform="translate(-3613.646 -1571.289)">
    <circle id="Elipse_180" data-name="Elipse 180" cx="3.5" cy="3.5" r="3.5" transform="translate(3651.314 1586.808)" fill="#3eb28b"/>
    <circle id="Elipse_181" data-name="Elipse 181" cx="3.5" cy="3.5" r="3.5" transform="translate(3662.314 1586.808)" fill="#3eb28b"/>
    <circle id="Elipse_182" data-name="Elipse 182" cx="3.5" cy="3.5" r="3.5" transform="translate(3673.314 1586.808)" fill="#3eb28b"/>
    <circle id="Elipse_183" data-name="Elipse 183" cx="3.5" cy="3.5" r="3.5" transform="translate(3624.314 1602.808)" fill="#3eb28b"/>
    <circle id="Elipse_184" data-name="Elipse 184" cx="3.5" cy="3.5" r="3.5" transform="translate(3635.314 1602.808)" fill="#3eb28b"/>
    <g id="Grupo_759" data-name="Grupo 759" transform="translate(3613.646 1586.207)">
      <path id="Caminho_6107" data-name="Caminho 6107" d="M3625.009,1668.22a2.4,2.4,0,0,1-2.4-2.4v-4.128h-2.462a6.5,6.5,0,0,1-6.5-6.5v-24.076a6.505,6.505,0,0,1,6.5-6.5h19.245a1.128,1.128,0,1,1,0,2.256h-19.245a4.247,4.247,0,0,0-4.242,4.242v24.076a4.247,4.247,0,0,0,4.242,4.242h3.59a1.128,1.128,0,0,1,1.128,1.128v5.255a.145.145,0,0,0,.248.1l6.154-6.155a1.128,1.128,0,0,1,.8-.33h28.063a4.247,4.247,0,0,0,4.242-4.242v-8.772a1.128,1.128,0,1,1,2.255,0v8.772a6.5,6.5,0,0,1-6.5,6.5h-27.6l-5.824,5.825A2.4,2.4,0,0,1,3625.009,1668.22Z" transform="translate(-3613.646 -1624.619)" fill="#fe7c34"/>
    </g>
    <g id="Grupo_758" data-name="Grupo 758" transform="translate(3639.006 1571.289)">
      <path id="Caminho_6106" data-name="Caminho 6106" d="M3745.92,1614.89a2.394,2.394,0,0,1-1.7-.7l-5.824-5.825h-27.6a6.505,6.505,0,0,1-6.5-6.5v-24.076a6.5,6.5,0,0,1,6.5-6.5h39.981a6.505,6.505,0,0,1,6.5,6.5v24.076a6.505,6.505,0,0,1-6.5,6.5h-2.462v4.127a2.4,2.4,0,0,1-2.4,2.4Zm-35.115-41.346a4.247,4.247,0,0,0-4.242,4.242v24.076a4.247,4.247,0,0,0,4.242,4.242h28.063a1.13,1.13,0,0,1,.8.331l6.154,6.155a.145.145,0,0,0,.248-.1v-5.255a1.128,1.128,0,0,1,1.128-1.128h3.59a4.247,4.247,0,0,0,4.242-4.242v-24.076a4.247,4.247,0,0,0-4.242-4.242Z" transform="translate(-3704.307 -1571.289)" fill="#fe7c34"/>
    </g>
  </g>
</svg>
