<svg xmlns="http://www.w3.org/2000/svg" xmlns:xlink="http://www.w3.org/1999/xlink" width="965.635" height="1271.48" viewBox="0 0 965.635 1271.48">
  <defs>
    <linearGradient id="linear-gradient" y1="0.5" x2="1" y2="0.5" gradientUnits="objectBoundingBox">
      <stop offset="0" stop-color="#78c7cf"/>
      <stop offset="1" stop-color="#675ba3"/>
    </linearGradient>
    <linearGradient id="linear-gradient-4" y1="0.5" x2="1" y2="0.5" gradientUnits="objectBoundingBox">
      <stop offset="0" stop-color="#78c7cf"/>
      <stop offset="1" stop-color="#39b085"/>
    </linearGradient>
    <linearGradient id="linear-gradient-12" y1="0.5" x2="1" y2="0.5" gradientUnits="objectBoundingBox">
      <stop offset="0" stop-color="#ef4d2a"/>
      <stop offset="1" stop-color="#ed245a"/>
    </linearGradient>
  </defs>
  <g id="Vetor" transform="translate(-149.776 -554.88)">
    <g id="Grupo_616" data-name="Grupo 616" transform="translate(149.776 637.753)">
      <g id="Grupo_615" data-name="Grupo 615">
        <g id="Grupo_614" data-name="Grupo 614">
          <path id="Caminho_5914" data-name="Caminho 5914" d="M400.26,823h43.387L495.8,855.3h.228V823h30.623a9.941,9.941,0,0,0,9.941-9.941V647.694a9.941,9.941,0,0,0-9.941-9.941H159.717a9.941,9.941,0,0,0-9.941,9.941V813.059A9.94,9.94,0,0,0,159.717,823Z" transform="translate(-149.776 -637.753)" fill="url(#linear-gradient)"/>
        </g>
      </g>
      <line id="Linha_1" data-name="Linha 1" x1="148.912" transform="translate(44.497 59.888)" fill="none" stroke="#b0cbe4" stroke-miterlimit="10" stroke-width="0.75" style="mix-blend-mode: multiply;isolation: isolate"/>
      <line id="Linha_2" data-name="Linha 2" x2="297.824" transform="translate(44.497 92.083)" fill="none" stroke="#b0cbe4" stroke-miterlimit="10" stroke-width="0.75" style="mix-blend-mode: multiply;isolation: isolate"/>
      <line id="Linha_3" data-name="Linha 3" x2="297.824" transform="translate(44.497 124.279)" fill="none" stroke="#b0cbe4" stroke-miterlimit="10" stroke-width="0.75" style="mix-blend-mode: multiply;isolation: isolate"/>
    </g>
    <g id="Grupo_620" data-name="Grupo 620" transform="translate(151.351 1434.73)">
      <g id="Grupo_617" data-name="Grupo 617" transform="translate(0 121.891)">
        <path id="Caminho_5915" data-name="Caminho 5915" d="M905.074,1786.128H417.109a46.519,46.519,0,0,1,0-93.038H905.074Z" transform="translate(-158.564 -1665.685)" fill="#fff"/>
        <path id="Caminho_5916" data-name="Caminho 5916" d="M396.487,1693.09H888.176v-27.4H172.416c-38.144,0-69.065,33.1-69.065,73.924s30.922,73.924,69.065,73.924h715.76v-27.4H396.487c-23.965,0-43.462-20.869-43.462-46.519S372.522,1693.09,396.487,1693.09Z" transform="translate(-103.351 -1665.685)" fill="url(#linear-gradient)"/>
        <path id="Caminho_5917" data-name="Caminho 5917" d="M888.176,1786.128H410.309c-23.291,0-42.241-20.869-42.241-46.519s18.949-46.519,42.241-46.519H888.176v-27.4H410.309c-37.072,0-67.124,33.1-67.124,73.924s30.051,73.924,67.124,73.924H888.176Z" transform="translate(-103.351 -1665.685)" fill="url(#linear-gradient)"/>
      </g>
      <g id="Grupo_618" data-name="Grupo 618" transform="translate(72.768)">
        <path id="Caminho_5918" data-name="Caminho 5918" d="M977.841,1639.5H489.876a46.519,46.519,0,1,1,0-93.038H977.841Z" transform="translate(-231.332 -1519.057)" fill="#fff"/>
        <path id="Caminho_5919" data-name="Caminho 5919" d="M469.254,1546.462H960.943v-27.405H245.183c-38.144,0-69.064,33.1-69.064,73.924s30.921,73.924,69.064,73.924H960.943V1639.5H469.254c-23.965,0-43.461-20.868-43.461-46.519S445.289,1546.462,469.254,1546.462Z" transform="translate(-176.119 -1519.057)" fill="#685ca4"/>
        <path id="Caminho_5920" data-name="Caminho 5920" d="M960.943,1639.5H483.076c-23.291,0-42.24-20.868-42.24-46.519s18.948-46.519,42.24-46.519H960.943v-27.405H483.076c-37.071,0-67.124,33.1-67.124,73.924s30.052,73.924,67.124,73.924H960.943Z" transform="translate(-176.119 -1519.057)" fill="#685ca4"/>
      </g>
      <g id="Grupo_619" data-name="Grupo 619" transform="translate(53.2 243.782)">
        <path id="Caminho_5921" data-name="Caminho 5921" d="M194.866,1839.717H682.831a46.519,46.519,0,0,1,0,93.039H194.866Z" transform="translate(-156.551 -1812.312)" fill="#fff"/>
        <path id="Caminho_5922" data-name="Caminho 5922" d="M691.7,1886.236c0,25.651-19.5,46.52-43.461,46.52H156.551v27.4h715.76c38.144,0,69.065-33.1,69.065-73.924s-30.922-73.924-69.065-73.924H156.551v27.405H648.24C672.2,1839.717,691.7,1860.586,691.7,1886.236Z" transform="translate(-156.551 -1812.312)" fill="url(#linear-gradient-4)"/>
        <path id="Caminho_5923" data-name="Caminho 5923" d="M156.551,1960.16H634.418c37.071,0,67.124-33.1,67.124-73.924s-30.052-73.924-67.124-73.924H156.551v27.405H634.418c23.29,0,42.24,20.869,42.24,46.519s-18.949,46.52-42.24,46.52H156.551Z" transform="translate(-156.551 -1812.312)" fill="url(#linear-gradient-4)"/>
      </g>
    </g>
    <g id="Grupo_636" data-name="Grupo 636" transform="translate(313.642 898.496)">
      <g id="Grupo_630" data-name="Grupo 630" transform="translate(163.888)">
        <path id="Caminho_5924" data-name="Caminho 5924" d="M641.343,1141.568c-7.262,16.958-25.071,29.138-46.143,29.436h-1.379c-21.048-.3-39.064-12.845-46.119-28.93a19.777,19.777,0,0,0,6.09-4.5.285.285,0,0,1,.184-.092,21.83,21.83,0,0,0,5.791-13.535,4.718,4.718,0,0,0,.091-1.127V1104.8h72.315v17.741C632.173,1130.24,640.194,1140.189,641.343,1141.568Z" transform="translate(-534.09 -956.631)" fill="#f4a898"/>
        <path id="Caminho_5925" data-name="Caminho 5925" d="M641.343,1141.568c-7.262,16.958-25.071,29.138-46.143,29.436h-1.379c-21.048-.3-39.064-12.845-46.119-28.93a19.777,19.777,0,0,0,6.09-4.5.285.285,0,0,1,.184-.092,21.83,21.83,0,0,0,5.791-13.535,4.718,4.718,0,0,0,.091-1.127V1104.8h72.315v17.741C632.173,1130.24,640.194,1140.189,641.343,1141.568Z" transform="translate(-534.09 -956.631)" fill="#f4a898" opacity="0.25" style="mix-blend-mode: multiply;isolation: isolate"/>
        <path id="Caminho_5926" data-name="Caminho 5926" d="M544.892,1052.3s-5.9-32.057-7.077-47c-1.292-16.367,26.489-48.792,71.068-48.67,7.36.019,18.736,6.374,19.764,21.819,0,0,38.2-6.34,19.247,68.683l-1.1,6.779" transform="translate(-534.09 -956.631)" fill="#633c4f"/>
        <path id="Caminho_5927" data-name="Caminho 5927" d="M645.22,1044.081c.263,19.346-2.149,35.284-5.347,45.35a54.262,54.262,0,0,1-20.133,27.734,69.269,69.269,0,0,1-10.275,6.134c-2.255,1-4.3,1.783-6.029,2.36a42.5,42.5,0,0,1-5.5,1.363,12.724,12.724,0,0,1-3.985,0,36.834,36.834,0,0,1-5.819-1.469,52.928,52.928,0,0,1-6.029-2.411,64.763,64.763,0,0,1-9.962-5.977,54.593,54.593,0,0,1-19.975-27.944c-3.2-10.013-5.767-25.794-5.5-45.14,0-2.464-.367-8.336.839-9.856,3.617-4.719,4.823-6.082,4.561-8.441-2.569-21.233,10.957-20.342,10.957-20.342h8.756c28.31,1.1,40.736-.524,48.181-2.412,22.019-5.662,15.99,21.758,16.567,23.278.629,1.521,7.077,5.243,7.863,7.917C644.958,1036.008,645.22,1041.617,645.22,1044.081Z" transform="translate(-534.09 -956.631)" fill="#f4a898"/>
        <path id="Caminho_5928" data-name="Caminho 5928" d="M551.431,1081.561a13.466,13.466,0,0,1-1.849,2.4c-7.718,4.655-19.482-23.02-14.151-34.649s12.785,1.079,12.785,1.079Z" transform="translate(-534.09 -956.631)" fill="#f4a898"/>
        <path id="Caminho_5929" data-name="Caminho 5929" d="M643.972,1050.391s7.454-12.708,12.785-1.079-6.433,39.3-14.151,34.649a13.419,13.419,0,0,1-1.849-2.4Z" transform="translate(-534.09 -956.631)" fill="#f4a898"/>
        <g id="Grupo_622" data-name="Grupo 622" transform="translate(24.194 80.881)">
          <g id="Grupo_621" data-name="Grupo 621" opacity="0.5" style="mix-blend-mode: multiply;isolation: isolate">
            <path id="Caminho_5930" data-name="Caminho 5930" d="M582.985,1042.376a2.241,2.241,0,0,0-.092-4.43c-1.117-.148-2.269-.259-3.42-.332-1.441-.092-2.889-.122-4.3-.09a45.758,45.758,0,0,0-4.925.369,39.6,39.6,0,0,0-5.29,1.055,33.13,33.13,0,0,0-5.386,1.979,2.241,2.241,0,0,0,1.915,4.053,28.7,28.7,0,0,1,4.657-1.709,34.817,34.817,0,0,1,4.686-.934,41.372,41.372,0,0,1,4.441-.332c1.29-.028,2.61,0,3.922.082,1.051.067,2.1.169,3.118.3A2.227,2.227,0,0,0,582.985,1042.376Z" transform="translate(-558.283 -1037.512)" fill="#f4a898"/>
          </g>
        </g>
        <g id="Grupo_624" data-name="Grupo 624" transform="translate(74.037 80.881)">
          <g id="Grupo_623" data-name="Grupo 623" opacity="0.5" style="mix-blend-mode: multiply;isolation: isolate">
            <path id="Caminho_5931" data-name="Caminho 5931" d="M609.982,1042.376a2.241,2.241,0,0,1,.092-4.43c1.118-.148,2.269-.259,3.421-.332,1.44-.092,2.888-.122,4.3-.09a45.761,45.761,0,0,1,4.924.369,39.572,39.572,0,0,1,5.29,1.055,33.144,33.144,0,0,1,5.387,1.979,2.242,2.242,0,1,1-1.916,4.053,28.687,28.687,0,0,0-4.656-1.709,34.882,34.882,0,0,0-4.686-.934,41.41,41.41,0,0,0-4.441-.332c-1.29-.028-2.61,0-3.923.082-1.05.067-2.1.169-3.117.3A2.234,2.234,0,0,1,609.982,1042.376Z" transform="translate(-608.126 -1037.512)" fill="#f4a898"/>
          </g>
        </g>
        <g id="Grupo_625" data-name="Grupo 625" transform="translate(3.085 94.403)" opacity="0.5" style="mix-blend-mode: multiply;isolation: isolate">
          <path id="Caminho_5932" data-name="Caminho 5932" d="M545.082,1059.072a.845.845,0,0,1-.764-.488,18.428,18.428,0,0,0-3.268-4.839,4.1,4.1,0,0,0-1.035-.87,1.139,1.139,0,0,0-.889-.1.427.427,0,0,0-.264.359.844.844,0,0,1-.639,1.005.823.823,0,0,1-1.008-.643,2.068,2.068,0,0,1,1.258-2.276,2.773,2.773,0,0,1,2.307.158,5.645,5.645,0,0,1,1.5,1.219,20.3,20.3,0,0,1,3.564,5.281.843.843,0,0,1-.764,1.2Z" transform="translate(-537.174 -1051.033)" fill="#f4a898"/>
        </g>
        <g id="Grupo_626" data-name="Grupo 626" transform="translate(111.589 93.971)" opacity="0.5" style="mix-blend-mode: multiply;isolation: isolate">
          <path id="Caminho_5933" data-name="Caminho 5933" d="M646.523,1058.645a.879.879,0,0,1-.356-.079.839.839,0,0,1-.409-1.117,19.81,19.81,0,0,1,3.564-5.284,5.347,5.347,0,0,1,1.5-1.219,2.719,2.719,0,0,1,2.3-.158,2.051,2.051,0,0,1,1.258,2.276.813.813,0,0,1-1.008.642.842.842,0,0,1-.639-1,.419.419,0,0,0-.264-.359,1.122,1.122,0,0,0-.883.1,3.87,3.87,0,0,0-1.034.87,18.239,18.239,0,0,0-3.268,4.836A.838.838,0,0,1,646.523,1058.645Z" transform="translate(-645.679 -1050.602)" fill="#f4a898"/>
        </g>
        <g id="Grupo_628" data-name="Grupo 628" transform="translate(56.154 95.566)" opacity="0.5" style="mix-blend-mode: multiply;isolation: isolate">
          <g id="Grupo_627" data-name="Grupo 627">
            <path id="Caminho_5934" data-name="Caminho 5934" d="M596.856,1081.144a1.769,1.769,0,0,1-.191-.007,7.069,7.069,0,0,1-5.95-4.935,13.912,13.912,0,0,1-.317-5.771l1.516-15.945a2.561,2.561,0,0,1,2.754-2.28,2.529,2.529,0,0,1,2.28,2.754l-1.515,15.951a9.791,9.791,0,0,0,.085,3.7,2.107,2.107,0,0,0,1.529,1.482,2.531,2.531,0,0,1-.191,5.054Z" transform="translate(-590.244 -1052.197)" fill="#f4a898"/>
          </g>
        </g>
        <path id="Caminho_5935" data-name="Caminho 5935" d="M614.608,1094.153a7.176,7.176,0,0,1-.325,2.118v.109a12.871,12.871,0,0,1-4.563,5.377,4.724,4.724,0,0,1-1.033.544,11.866,11.866,0,0,1-2.335,1.195c-.163.054-.272.109-.435.163a30.609,30.609,0,0,1-7.061,1.684,24.723,24.723,0,0,1-2.88.108h-.108a23.292,23.292,0,0,1-2.716-.108,25.816,25.816,0,0,1-7.117-1.793c-.162-.054-.271-.109-.434-.163a10.109,10.109,0,0,1-2.444-1.086,7.6,7.6,0,0,1-.978-.653,10.625,10.625,0,0,1-4.618-5.268v-.109a9.489,9.489,0,0,1-.271-2.118c0-2.554,1.087-4.183,3.313-4.89a7.713,7.713,0,0,1,2.065-.488,27.628,27.628,0,0,1,6.736.38,48.073,48.073,0,0,0,13.091,0,23.622,23.622,0,0,1,6.844-.38,8.656,8.656,0,0,1,2.119.543l.054.054A4.7,4.7,0,0,1,614.608,1094.153Z" transform="translate(-534.09 -956.631)" fill="#f4a898" opacity="0.5" style="mix-blend-mode: multiply;isolation: isolate"/>
        <path id="Caminho_5936" data-name="Caminho 5936" d="M605.917,1103.659a30.609,30.609,0,0,1-7.061,1.684,24.723,24.723,0,0,1-2.88.108h-.108a23.292,23.292,0,0,1-2.716-.108,25.816,25.816,0,0,1-7.117-1.793,17.051,17.051,0,0,1,9.887-3.205A16.845,16.845,0,0,1,605.917,1103.659Z" transform="translate(-534.09 -956.631)" fill="#f4a898" opacity="0.5" style="mix-blend-mode: multiply;isolation: isolate"/>
        <path id="Caminho_5937" data-name="Caminho 5937" d="M611.512,1089.372c-2.118,1.847-1.249,2.988-15.644,2.988-14.124,0-13.526-1.141-15.482-2.988a.418.418,0,0,1,.217-.109,7.713,7.713,0,0,1,2.065-.488,27.628,27.628,0,0,1,6.736.38,48.073,48.073,0,0,0,13.091,0,23.622,23.622,0,0,1,6.844-.38,8.656,8.656,0,0,1,2.119.543Z" transform="translate(-534.09 -956.631)" fill="#fff"/>
        <g id="Grupo_629" data-name="Grupo 629" transform="translate(33.323 92.452)">
          <path id="Caminho_5938" data-name="Caminho 5938" d="M575.576,1053.165a4.081,4.081,0,1,1-4.081-4.082A4.082,4.082,0,0,1,575.576,1053.165Z" transform="translate(-567.413 -1049.083)" fill="#633c4f"/>
          <path id="Caminho_5939" data-name="Caminho 5939" d="M624.43,1053.165a4.081,4.081,0,1,1-4.081-4.082A4.082,4.082,0,0,1,624.43,1053.165Z" transform="translate(-567.413 -1049.083)" fill="#633c4f"/>
        </g>
      </g>
      <path id="Caminho_5940" data-name="Caminho 5940" d="M664.1,1409.076,520.828,1404.3l68.95,48.782Z" transform="translate(-370.201 -956.631)" fill="#2f4984"/>
      <line id="Linha_4" data-name="Linha 4" y1="29.194" transform="translate(226.866 455.094)" fill="none" stroke="#b0cbe4" stroke-miterlimit="10" stroke-width="2" opacity="0.53" style="mix-blend-mode: multiply;isolation: isolate"/>
      <path id="Caminho_5941" data-name="Caminho 5941" d="M708.21,1246.49c-3,24.682-.747,97.156-1.014,104.433l-112.191-.114V1170.377h.723c20.245-.278,38.668-12.494,45.615-28.809h0s38.1,16.74,56.42,25.907c2.18,1.077,4.095,2.066,5.654,2.9a31.917,31.917,0,0,1,7.974,6.238c4.855,5.057,7.225,12.26,10.445,18.775C725.525,1210.869,706.2,1228.6,708.21,1246.49Z" transform="translate(-370.201 -956.631)" fill="#fff"/>
      <path id="Caminho_5942" data-name="Caminho 5942" d="M570.887,1343.064s-22.242,3.787-29.54,3.546c-9.482-.314-28.223-5.579-34.08-14.108-3.24-4.718-5.98-20.9-.211-21.776,7.068-1.068,33.027,10.534,33.027,10.534s-11.352-10.54-7.68-15.8,20.428,9.741,25.426,12.275,12.682,7.153,12.682,7.153Z" transform="translate(-370.201 -956.631)" fill="#f4a898"/>
      <path id="Caminho_5943" data-name="Caminho 5943" d="M575.336,1350.914c-2.084-.373-2.915-3.716-4.051-5.745a1.379,1.379,0,0,1-.167-.335c14.8.2,29.39.243,44.466-.037,24.849-.409,50.888-1.6,80.892-3.964a37.751,37.751,0,0,0,10.573-2.253l.15,12.341Z" transform="translate(-370.201 -956.631)" fill="#dfedf7" style="mix-blend-mode: multiply;isolation: isolate"/>
      <path id="Caminho_5944" data-name="Caminho 5944" d="M707.2,1350.921H602.7" transform="translate(-370.201 -956.631)" fill="none"/>
      <path id="Caminho_5945" data-name="Caminho 5945" d="M679.639,1298.81c-3.953,3.076-85.786,20.1-115.416,20.477l-.8-.159a574.88,574.88,0,0,0,71.038-15.916c9.31-2.732,18.965-5.941,25.544-13.051,8.966-9.682,10.054-24.271,8.648-37.4-1.353-12.705-4.616-25.411-3.184-38.091.08.556.186,1.167.293,1.857C667.888,1230.133,695.13,1286.873,679.639,1298.81Z" transform="translate(-370.201 -956.631)" fill="#dfedf7" style="mix-blend-mode: multiply;isolation: isolate"/>
      <path id="Caminho_5946" data-name="Caminho 5946" d="M737.336,1321.621c-1.434,14.425-4.933,26.784-11.373,35.234a28.942,28.942,0,0,1-12.676,9.791,46.379,46.379,0,0,1-10.572,2.252c-44.814,5.788-92.343,10.509-131.6,9.95-1.582,0-3.183-.038-4.8-.056l-2.885-29.885-.187-1.526a9.14,9.14,0,0,0,.987-.037c29.613-.373,111.455-17.385,115.4-20.475,15.5-11.931-11.745-96.728-13.867-110.353-.112-.689-.205-1.284-.3-1.843v-.037c-.26-1.675-.446-2.736-.5-3.015l32.8-44.151c2.178,1.08,4.095,2.066,5.659,2.9a31.643,31.643,0,0,1,7.966,6.236l.145.152c7.168,7.518,13.3,17.567,16.056,27.584,3.942,14.341,7.006,26.672,8.594,40.8C738.117,1262.006,738.806,1306.9,737.336,1321.621Z" transform="translate(-370.201 -956.631)" fill="#fff"/>
      <g id="Grupo_631" data-name="Grupo 631" transform="translate(81.73 185.443)">
        <path id="Caminho_5947" data-name="Caminho 5947" d="M475.612,1246.49c3,24.682.747,97.156,1.014,104.433l118.43-.114V1170.377h-.723c-20.245-.278-39.684-11.988-46.631-28.3h0s-37.086,16.234-55.4,25.4c-2.18,1.077-4.094,2.066-5.654,2.9a31.916,31.916,0,0,0-7.974,6.238c-4.855,5.057-6.564,12.354-9.784,18.871C465.2,1210.964,477.627,1228.6,475.612,1246.49Z" transform="translate(-451.931 -1142.074)" fill="#fff"/>
        <path id="Caminho_5948" data-name="Caminho 5948" d="M619.174,1343.064s22.243,3.787,29.54,3.546c9.482-.314,28.223-5.579,34.081-14.108,3.239-4.718,5.979-20.9.209-21.776-7.067-1.068-33.025,10.534-33.025,10.534s11.351-10.54,7.679-15.8-20.428,9.741-25.426,12.275-12.683,7.153-12.683,7.153Z" transform="translate(-451.931 -1142.074)" fill="#f4a898"/>
        <path id="Caminho_5949" data-name="Caminho 5949" d="M614.724,1350.914c2.085-.373,2.916-3.716,4.052-5.745a1.414,1.414,0,0,0,.168-.335c-14.8.2-29.39.243-44.467-.037-24.849-.409-57.127-1.6-87.131-3.964a37.737,37.737,0,0,1-10.572-2.253l-.151,12.341Z" transform="translate(-451.931 -1142.074)" fill="#dfedf7" style="mix-blend-mode: multiply;isolation: isolate"/>
        <path id="Caminho_5950" data-name="Caminho 5950" d="M510.422,1298.81c3.953,3.076,85.787,20.1,115.416,20.477l.8-.159a574.825,574.825,0,0,1-71.037-15.916c-9.311-2.732-18.967-5.941-25.545-13.051-8.966-9.682-10.053-24.271-8.647-37.4,1.352-12.705,4.615-25.411,3.183-38.091-.08.556-.186,1.167-.293,1.857C522.173,1230.133,494.931,1286.873,510.422,1298.81Z" transform="translate(-451.931 -1142.074)" fill="#dfedf7" style="mix-blend-mode: multiply;isolation: isolate"/>
        <path id="Caminho_5951" data-name="Caminho 5951" d="M626.811,1340.558l-.162,1.461-.013.074-2.233,23.059-.075.712-.4,4.229-.187-19.361c-1.61.012-3.22.05-4.8.05l-3.844.037h-.012c-.35,0-.7.013-1.048.013-1.472,0-2.945,0-4.43-.013h-.6q-6.926-.055-13.95-.3h-.05c-7.137-.25-14.337,20.609-21.624,20.1-2.408-.163-4.829-.338-7.249-.525q-11.867-.935-24.032-2.221h-.05c-2.471-.262-4.942-.524-7.437-.8-13.364-1.472-33.266-3.181-47.266-4.99a52.584,52.584,0,0,1-9.309-1.81c-.424-.137-.848-.286-1.26-.449-.025-.012-.037-.012-.062-.025a28.241,28.241,0,0,1-11.018-7.811c-.549-.624-1.086-1.272-1.6-1.947a39.387,39.387,0,0,1-3.356-5.241h-.013a52.369,52.369,0,0,1-3.482-7.985,95.236,95.236,0,0,1-4.529-22.011c-1.472-14.724-.773-52.8,1.161-69.659a285.489,285.489,0,0,1,8.336-41.492c2.591-9.6,8.2-17.428,14.2-24.515.674-.811,1.373-1.6,2.109-2.371a1.651,1.651,0,0,1,.15-.15v-.012c.3-.325.6-.624.923-.936a31.337,31.337,0,0,1,3.906-3.319,26.788,26.788,0,0,1,3.132-1.972c1.572-.836,3.481-1.822,5.665-2.907l.249.362,32.542,43.784c-.05.287-.237,1.348-.5,3.019v.038c-.088.562-.187,1.148-.3,1.847-1.884,12.128-23.7,79.654-17.519,98.084a14.868,14.868,0,0,0,.649,1.634c.012,0,.012,0,0,.012a16.028,16.028,0,0,0,.823,1.436,11.412,11.412,0,0,0,1,1.285,9.529,9.529,0,0,0,1.185,1.073,14.627,14.627,0,0,0,3.469,1.348h.012l1.385.411h.013c.324.087.674.188,1.035.287h.013c.362.1.736.2,1.123.312h.012c.587.15,1.2.312,1.847.487,2.595.661,5.677,1.4,9.134,2.2.861.187,1.747.387,2.645.6.624.125,1.248.275,1.884.424,2.483.536,5.116,1.1,7.873,1.672a2.1,2.1,0,0,0,.312.062.013.013,0,0,0,.013.013c12.315,2.571,26.877,5.341,40.865,7.624,1.522.25,3.032.5,4.541.724,2.845.449,5.653.873,8.4,1.272h.025a.039.039,0,0,0,.025.013c1.759.249,3.494.487,5.2.724,1.448.187,2.87.375,4.255.548s2.77.337,4.1.487c2,.225,3.931.424,5.79.6,4.318.4,8.173.636,11.417.674h.062A8.145,8.145,0,0,0,626.811,1340.558Z" transform="translate(-451.931 -1142.074)" fill="#fff"/>
      </g>
      <path id="Caminho_5952" data-name="Caminho 5952" d="M718.148,1246.8v164.919H471.961V1246.8a4.175,4.175,0,0,1,4.168-4.167H713.98A4.175,4.175,0,0,1,718.148,1246.8Z" transform="translate(-370.201 -956.631)" fill="#475fb4"/>
      <path id="Caminho_5953" data-name="Caminho 5953" d="M471.961,1330.742v46.068c-4.08-2.6-7.948-5.24-7.948-5.24,1.672-7.013,2.433-24.906,2.745-36.759.187-6.551.237-11.256.237-11.256h.012a39.565,39.565,0,0,0,3.357,5.241C470.876,1329.469,471.412,1330.119,471.961,1330.742Z" transform="translate(-370.201 -956.631)" fill="#fff"/>
      <path id="Caminho_5954" data-name="Caminho 5954" d="M471.961,1351.531v14.013l-6.066-10.527c.4-6.542.567-11.177.567-11.177l.7,1.034a32.815,32.815,0,0,0,3.2,4.711C470.876,1350.258,471.412,1350.907,471.961,1351.531Z" transform="translate(-370.201 -956.631)" fill="#dfedf7" style="mix-blend-mode: multiply;isolation: isolate"/>
      <g id="Grupo_632" data-name="Grupo 632" transform="translate(347.947 366.931)">
        <path id="Caminho_5955" data-name="Caminho 5955" d="M718.148,1333.319v46.068c4.08-2.595,7.948-5.013,7.948-5.013-1.672-7.013-2.433-25.132-2.745-36.986-.187-6.551-.237-13.826-.237-13.826H723.1a39.486,39.486,0,0,1-3.356,5.241C719.233,1329.477,718.7,1332.7,718.148,1333.319Z" transform="translate(-718.148 -1323.562)" fill="#fff"/>
        <path id="Caminho_5956" data-name="Caminho 5956" d="M718.148,1358.24v16.581l6.525-10.937c-.488-6.452-.862-13.6-.862-13.6h0a53.435,53.435,0,0,1-4.066,6.014C719.233,1356.967,718.7,1357.616,718.148,1358.24Z" transform="translate(-718.148 -1323.562)" fill="#dfedf7" style="mix-blend-mode: multiply;isolation: isolate"/>
      </g>
      <g id="Grupo_635" data-name="Grupo 635" transform="translate(0 390.203)">
        <g id="Grupo_633" data-name="Grupo 633">
          <path id="Caminho_5957" data-name="Caminho 5957" d="M477.626,1502.662s30.886-8.015,36.751-9.97v30.887s-33.428,6.842-36.751,6.647S477.626,1502.662,477.626,1502.662Z" transform="translate(-370.201 -1346.834)" fill="#f4a898"/>
          <path id="Caminho_5958" data-name="Caminho 5958" d="M818.219,1410.163c-1.148,7.175-2.945,13.651-5.5,17.219-9.794,13.714-29.871,37.171-94.194,60.942-44.533,16.458-110.266,33.066-208.466,46.679l-1.772-8.347-9.221-43.348s173.5-70.449,234.545-114.072c16.807-12.015,72.745-44.783,84.349,1.934a68.624,68.624,0,0,1,1.622,9.471C820.265,1387.179,819.953,1399.457,818.219,1410.163Z" transform="translate(-370.201 -1346.834)" fill="url(#linear-gradient)"/>
          <path id="Caminho_5959" data-name="Caminho 5959" d="M487.247,1532.008s-53.081,32.568-95.293,17.694-12.079-43.185-.15-47.627c13.751-5.116,42.125-5.989,63.487-5.815,15.385.112,27.127.761,27.127.761l.661,4.767Z" transform="translate(-370.201 -1346.834)" fill="#403335"/>
          <path id="Caminho_5960" data-name="Caminho 5960" d="M818.219,1410.163c-3.394,36.036-52.119,70.525-77.337,86.085-16.308.062-29.011.773-29.011.773l-.773,5.652c-8.124-2.233-15.074-5.489-19.515-6.438,64.322-23.77,111.339-55.139,121.133-68.853C815.274,1423.814,817.071,1417.338,818.219,1410.163Z" transform="translate(-370.201 -1346.834)" fill="url(#linear-gradient)"/>
          <path id="Caminho_5961" data-name="Caminho 5961" d="M818.219,1410.163c-1.148,7.175-2.945,13.651-5.5,17.219-9.794,13.714-29.871,37.171-94.194,60.942-44.533,16.458-110.266,33.066-208.466,46.679l-1.772-8.347c3.856-.736,8.123-.812,12.553-1.41q18.173-2.433,36.21-5.74,35.692-6.55,70.662-16.521,19.426-5.539,38.543-12.128c33.191-11.429,65.946-25.392,94.058-46.417,25.218-18.867,46.6-43.922,57.647-73.27a68.624,68.624,0,0,1,1.622,9.471C820.265,1387.179,819.953,1399.457,818.219,1410.163Z" transform="translate(-370.201 -1346.834)" fill="#dfedf7" style="mix-blend-mode: multiply;isolation: isolate"/>
        </g>
        <g id="Grupo_634" data-name="Grupo 634" transform="translate(4.17 0.003)">
          <path id="Caminho_5962" data-name="Caminho 5962" d="M716.666,1502.662s-30.887-8.015-36.751-9.97v30.887s33.428,6.842,36.751,6.647S716.666,1502.662,716.666,1502.662Z" transform="translate(-374.372 -1346.837)" fill="#f4a898"/>
          <path id="Caminho_5963" data-name="Caminho 5963" d="M695.226,1483.308l-2.757,12.952-6.09,28.624-.374,1.772L684.233,1535c-81.4-11.279-140.487-24.631-183.685-38.232-8.922-2.82-17.157-5.639-24.781-8.447-64.323-23.771-84.4-47.228-94.2-60.942-2.558-3.568-4.355-10.044-5.5-17.219-1.734-10.706-2.045-22.984-1.359-29.522a68.638,68.638,0,0,1,1.622-9.471c11.2-45.094,63.723-16.121,82.465-3.257.674.463,1.3.912,1.884,1.323,3.419,2.446,7.2,4.979,11.28,7.574C540.627,1420.532,695.226,1483.308,695.226,1483.308Z" transform="translate(-374.372 -1346.837)" fill="url(#linear-gradient)"/>
          <path id="Caminho_5964" data-name="Caminho 5964" d="M802.335,1549.7c-42.212,14.874-95.28-17.694-95.28-17.694l4.043-29.335.773-5.652s12.7-.711,29.011-.773c21.112-.113,48.252.861,61.6,5.827C814.414,1506.517,844.56,1534.816,802.335,1549.7Z" transform="translate(-374.372 -1346.837)" fill="#403335"/>
          <path id="Caminho_5965" data-name="Caminho 5965" d="M500.548,1496.771c-4.418,1.223-10.519,3.444-17.469,5.017l-.661-4.767s-11.742-.649-27.127-.761c-24.619-14.611-75.74-49.163-79.222-86.1,1.148,7.175,2.945,13.651,5.5,17.219,9.8,13.714,29.872,37.171,94.2,60.942C483.391,1491.132,491.626,1493.951,500.548,1496.771Z" transform="translate(-374.372 -1346.837)" fill="url(#linear-gradient)"/>
          <path id="Caminho_5966" data-name="Caminho 5966" d="M502.707,1496.235c-.662.137-1.386.325-2.159.536-8.922-2.82-17.157-5.639-24.781-8.447-64.323-23.771-84.4-47.228-94.2-60.942C391.367,1441.1,438.383,1472.465,502.707,1496.235Z" transform="translate(-374.372 -1346.837)" fill="#475fb4"/>
          <path id="Caminho_5967" data-name="Caminho 5967" d="M686.005,1526.656,684.233,1535c-81.4-11.279-140.487-24.631-183.685-38.232-8.922-2.82-17.157-5.639-24.781-8.447-64.323-23.771-84.4-47.228-94.2-60.942-2.558-3.568-4.355-10.044-5.5-17.219-1.734-10.706-2.045-22.984-1.359-29.522a68.638,68.638,0,0,1,1.622-9.471c11.043,29.348,32.43,54.4,57.647,73.27,28.112,21.025,60.866,34.988,94.057,46.417q19.11,6.588,38.544,12.128,34.906,9.959,70.662,16.521,18.024,3.312,36.21,5.74C677.882,1525.844,682.149,1525.92,686.005,1526.656Z" transform="translate(-374.372 -1346.837)" fill="url(#linear-gradient)" style="mix-blend-mode: multiply;isolation: isolate"/>
        </g>
      </g>
    </g>
    <g id="Grupo_639" data-name="Grupo 639" transform="translate(574.125 680.951)">
      <g id="Grupo_638" data-name="Grupo 638">
        <g id="Grupo_637" data-name="Grupo 637">
          <path id="Caminho_5968" data-name="Caminho 5968" d="M787.02,866.2H743.633l-52.155,32.3h-.228V866.2H660.627a9.94,9.94,0,0,1-9.941-9.941V690.892a9.941,9.941,0,0,1,9.941-9.941h366.936a9.941,9.941,0,0,1,9.941,9.941V856.257a9.941,9.941,0,0,1-9.941,9.941Z" transform="translate(-650.686 -680.951)" fill="#e8e8e8"/>
        </g>
      </g>
      <line id="Linha_5" data-name="Linha 5" x2="148.912" transform="translate(193.409 59.888)" fill="none" stroke="#b0cbe4" stroke-miterlimit="10" stroke-width="0.75" style="mix-blend-mode: multiply;isolation: isolate"/>
      <line id="Linha_6" data-name="Linha 6" x1="297.824" transform="translate(44.496 92.083)" fill="none" stroke="#b0cbe4" stroke-miterlimit="10" stroke-width="0.75" style="mix-blend-mode: multiply;isolation: isolate"/>
      <line id="Linha_7" data-name="Linha 7" x1="297.824" transform="translate(44.496 124.279)" fill="none" stroke="#b0cbe4" stroke-miterlimit="10" stroke-width="0.75" style="mix-blend-mode: multiply;isolation: isolate"/>
    </g>
    <g id="Grupo_642" data-name="Grupo 642" transform="translate(806.475 554.88)">
      <path id="Caminho_5969" data-name="Caminho 5969" d="M1107.364,717.155l26.37-63.709c9.008-17.372-14.748-47.559-53.06-67.425s-76.673-21.887-85.68-4.515l-36.876,58.262a14.027,14.027,0,0,0-1.163,1.838c-9.008,17.373,20.166,50.369,58.478,70.235s82.091,24.7,91.1,7.325A13.974,13.974,0,0,0,1107.364,717.155Z" transform="translate(-918.551 -511.88)" fill="url(#linear-gradient)"/>
      <g id="Grupo_641" data-name="Grupo 641" transform="translate(45.432 106.633)">
        <g id="Grupo_640" data-name="Grupo 640">
          <path id="Caminho_5970" data-name="Caminho 5970" d="M1024.1,695.135c34.588,17.934,73.622,23.609,87.515,11.761l5.374-12.983c-18.6,5.887-52.745-.821-83.548-16.793s-55.957-40.01-61.866-58.607l-7.514,11.873C962.378,648.567,989.508,677.2,1024.1,695.135Z" transform="translate(-963.983 -618.513)" fill="url(#linear-gradient-12)"/>
        </g>
      </g>
      <path id="Caminho_5971" data-name="Caminho 5971" d="M1056.923,631.827,931.046,511.88l173.379,28.336,123.062,125.376Z" transform="translate(-918.551 -511.88)" fill="url(#linear-gradient)"/>
      <path id="Caminho_5972" data-name="Caminho 5972" d="M1227.487,665.591l-3.939,7.6-170.564-33.765L927.108,519.475l3.938-7.6,125.877,119.947Z" transform="translate(-918.551 -511.88)" fill="#2f4277"/>
      <path id="Caminho_5973" data-name="Caminho 5973" d="M1080.647,586.1a3.052,3.052,0,0,0-1.939-3.917L973.936,548.313v.021a2.806,2.806,0,0,0-1.211-.336,2.848,2.848,0,0,0-2.633,1.537l-24.573,47.389,5.062,2.624,23.258-44.854,102.992,33.291a3.051,3.051,0,0,0,3.816-1.889Z" transform="translate(-918.551 -511.88)" fill="url(#linear-gradient-12)"/>
      <path id="Caminho_5974" data-name="Caminho 5974" d="M937.343,641.564,952.4,606.472c1.2-2.321,1.262-6.542-3.857-9.2s-8.534-.174-9.737,2.147l-20,32.53v0c-1.2,2.321,1.97,6.354,7.089,9.008s10.244,2.924,11.447.6Z" transform="translate(-918.551 -511.88)" fill="url(#linear-gradient-12)"/>
    </g>
  </g>
</svg>
